<svg xmlns="http://www.w3.org/2000/svg" width="703" height="146" viewBox="0 0 703 146" fill="none"><g opacity="0.8"><rect y="0.5" width="134" height="145" rx="16" fill="url(#paint0_linear_46_208)" fill-opacity="0.85"></rect><rect x="0.5" y="1" width="133" height="144" rx="15.5" stroke="url(#paint1_linear_46_208)" stroke-opacity="0.28"></rect></g><path d="M45.3352 116.5L79.3698 38.3327L85.9772 48.8049H41.7199L51.818 37.4601V62.2691H30.749V29.2319H103.057V44.6908L72.2636 116.5H45.3352Z" fill="#FFECF1"></path><path d="M127.805 69.7806C127.656 70.2712 127.592 70.7297 127.613 71.1563C127.656 71.5615 127.912 71.7642 128.381 71.7642C128.808 71.7642 129.202 71.5296 129.565 71.0603C129.928 70.5698 130.311 69.7166 130.717 68.5009L131.101 67.3172H131.708L130.973 69.6526C130.717 70.5058 130.375 71.1776 129.949 71.6682C129.522 72.1374 129.074 72.468 128.605 72.66C128.136 72.8519 127.688 72.9479 127.261 72.9479C125.982 72.9479 125.31 72.34 125.246 71.1243C125.225 70.7831 125.246 70.3885 125.31 69.9406C125.395 69.4927 125.513 69.0021 125.662 68.4689L130.269 51.1608C130.461 50.4356 130.429 49.9024 130.173 49.5612C129.917 49.2199 129.266 49.0493 128.221 49.0493L128.413 48.3774C129.586 48.3561 130.621 48.2388 131.517 48.0255C132.412 47.7909 133.265 47.471 134.076 47.0657L127.805 69.7806ZM120.639 71.9241C121.172 71.9241 121.769 71.6149 122.431 70.9963C123.113 70.3565 123.796 69.5033 124.478 68.4369C125.182 67.3492 125.822 66.1228 126.398 64.7577C126.995 63.3714 127.464 61.9424 127.805 60.4707L127.325 63.9259C126.494 66.1228 125.662 67.8824 124.83 69.2047C124.02 70.5271 123.188 71.4869 122.335 72.0841C121.503 72.66 120.628 72.9479 119.711 72.9479C119.05 72.9479 118.463 72.7986 117.952 72.5C117.461 72.1801 117.077 71.7108 116.8 71.0923C116.523 70.4738 116.384 69.6846 116.384 68.7249C116.384 67.7011 116.544 66.6027 116.864 65.4296C117.205 64.2352 117.685 63.0621 118.303 61.9104C118.922 60.7586 119.658 59.7135 120.511 58.7751C121.385 57.8153 122.345 57.0475 123.39 56.4716C124.435 55.8957 125.545 55.6078 126.718 55.6078C127.208 55.6078 127.667 55.7998 128.093 56.1837C128.52 56.5463 128.754 57.1008 128.797 57.8473L128.541 58.4872C128.456 57.7193 128.243 57.1755 127.901 56.8555C127.56 56.5143 127.176 56.3436 126.75 56.3436C125.939 56.3436 125.15 56.6209 124.382 57.1755C123.636 57.73 122.953 58.4658 122.335 59.383C121.716 60.3001 121.172 61.3239 120.703 62.4543C120.234 63.5633 119.871 64.7044 119.615 65.8775C119.359 67.0292 119.231 68.117 119.231 69.1408C119.231 70.0792 119.349 70.7831 119.583 71.2523C119.818 71.7002 120.17 71.9241 120.639 71.9241ZM138.107 50.233C138.213 49.6785 138.491 49.1986 138.939 48.7933C139.408 48.3881 139.909 48.1855 140.442 48.1855C140.997 48.1855 141.423 48.3881 141.722 48.7933C142.042 49.1986 142.149 49.6785 142.042 50.233C141.935 50.7876 141.647 51.2675 141.178 51.6727C140.73 52.0779 140.229 52.2806 139.674 52.2806C139.141 52.2806 138.715 52.0779 138.395 51.6727C138.096 51.2675 138 50.7876 138.107 50.233ZM137.115 58.7751C137.563 57.4527 137.414 56.7915 136.667 56.7915C136.177 56.7915 135.739 57.0581 135.355 57.5914C134.971 58.1246 134.566 58.9457 134.14 60.0548L133.692 61.2385H133.084L133.916 58.9031C134.236 58.0073 134.62 57.3248 135.067 56.8555C135.515 56.3863 135.985 56.0664 136.475 55.8957C136.987 55.7038 137.456 55.6078 137.883 55.6078C138.565 55.6078 139.067 55.7464 139.386 56.0237C139.706 56.301 139.898 56.6636 139.962 57.1115C140.026 57.5594 140.005 58.0499 139.898 58.5831C139.792 59.095 139.653 59.5962 139.482 60.0868L136.059 69.7806C135.846 70.3991 135.771 70.8897 135.835 71.2523C135.921 71.5935 136.166 71.7642 136.571 71.7642C136.998 71.7642 137.403 71.5296 137.787 71.0603C138.171 70.5911 138.597 69.738 139.067 68.5009L139.514 67.3172H140.122L139.291 69.6526C138.992 70.4845 138.629 71.1456 138.203 71.6362C137.776 72.1054 137.318 72.436 136.827 72.628C136.337 72.8413 135.846 72.9479 135.355 72.9479C134.438 72.9479 133.82 72.7346 133.5 72.308C133.18 71.8815 133.063 71.3269 133.148 70.6444C133.233 69.9619 133.414 69.2367 133.692 68.4689L137.115 58.7751ZM144.658 71.9241C145.169 71.9241 145.756 71.6042 146.417 70.9643C147.078 70.3032 147.75 69.418 148.433 68.3089C149.115 67.1999 149.744 65.9415 150.32 64.5338C150.896 63.1261 151.355 61.6651 151.696 60.1508L151.152 63.606C150.342 65.8668 149.531 67.6904 148.721 69.0768C147.91 70.4418 147.089 71.4336 146.257 72.0521C145.425 72.6493 144.583 72.9479 143.73 72.9479C142.727 72.9479 141.97 72.5853 141.458 71.8601C140.968 71.135 140.722 70.2072 140.722 69.0768C140.722 68.053 140.893 66.9439 141.234 65.7495C141.576 64.5338 142.045 63.3287 142.642 62.1343C143.261 60.9399 143.964 59.8522 144.754 58.8711C145.543 57.89 146.396 57.1008 147.313 56.5036C148.251 55.9064 149.201 55.6078 150.16 55.6078C150.907 55.6078 151.472 55.9811 151.856 56.7276C152.261 57.4527 152.346 58.4765 152.112 59.7989L151.76 59.9908C151.909 58.8604 151.835 57.9539 151.536 57.2714C151.237 56.5676 150.747 56.2157 150.064 56.2157C149.51 56.2157 148.923 56.4929 148.305 57.0475C147.708 57.5807 147.121 58.3165 146.545 59.255C145.991 60.1721 145.479 61.2065 145.009 62.3583C144.562 63.51 144.199 64.7044 143.922 65.9415C143.666 67.1572 143.538 68.3303 143.538 69.4607C143.538 70.3778 143.634 71.0177 143.826 71.3803C144.039 71.7428 144.316 71.9241 144.658 71.9241ZM152.72 56.0557C153.232 56.0344 153.743 55.9917 154.255 55.9277C154.767 55.8637 155.236 55.7571 155.663 55.6078L151.664 69.7486C151.621 69.9406 151.557 70.1965 151.472 70.5164C151.408 70.815 151.408 71.0923 151.472 71.3483C151.557 71.6042 151.781 71.7322 152.144 71.7322C152.57 71.7322 152.986 71.4976 153.392 71.0283C153.797 70.5591 154.202 69.706 154.607 68.4689L154.991 67.2852H155.599L154.799 69.6206C154.501 70.4738 154.138 71.1456 153.712 71.6362C153.306 72.1054 152.88 72.436 152.432 72.628C151.984 72.8413 151.547 72.9479 151.12 72.9479C150.288 72.9479 149.702 72.6706 149.36 72.1161C149.083 71.6255 149.009 71.0603 149.137 70.4205C149.265 69.7593 149.414 69.0981 149.584 68.4369L152.72 56.0557ZM157.789 72.0201C157.959 72.1054 158.141 72.1801 158.332 72.2441C158.546 72.2867 158.855 72.308 159.26 72.308C160.199 72.308 160.967 72.0308 161.564 71.4762C162.182 70.9004 162.492 70.0792 162.492 69.0128C162.492 68.3516 162.364 67.7011 162.108 67.0612C161.873 66.4 161.446 65.6429 160.828 64.7897C160.337 64.1072 159.868 63.414 159.42 62.7102C158.972 61.985 158.748 61.1319 158.748 60.1508C158.748 59.2337 158.972 58.4445 159.42 57.7833C159.868 57.1008 160.465 56.5676 161.212 56.1837C161.98 55.7998 162.811 55.6078 163.707 55.6078C164.326 55.6078 164.934 55.6825 165.531 55.8318C166.128 55.9811 166.619 56.2583 167.003 56.6636C167.408 57.0475 167.61 57.6234 167.61 58.3912C167.61 58.5831 167.557 58.8177 167.45 59.095C167.365 59.351 167.216 59.5749 167.003 59.7669C166.789 59.9588 166.501 60.0548 166.139 60.0548C165.797 60.0548 165.499 59.9375 165.243 59.7029C164.987 59.4469 164.859 59.1163 164.859 58.7111C164.859 58.3272 164.934 57.9646 165.083 57.6234C165.254 57.2608 165.478 56.9088 165.755 56.5676C165.35 56.3116 164.816 56.1837 164.155 56.1837C163.366 56.1837 162.705 56.4503 162.172 56.9835C161.638 57.5167 161.372 58.2632 161.372 59.223C161.372 59.7135 161.446 60.1508 161.596 60.5347C161.745 60.8973 161.958 61.2812 162.236 61.6864C162.534 62.0917 162.886 62.6036 163.291 63.2221C163.825 64.0326 164.272 64.8111 164.635 65.5576C164.998 66.3041 165.179 67.0932 165.179 67.925C165.179 68.9061 164.923 69.7806 164.411 70.5484C163.921 71.2949 163.259 71.8815 162.428 72.308C161.596 72.7346 160.679 72.9479 159.676 72.9479C158.951 72.9479 158.258 72.8413 157.597 72.628C156.935 72.4147 156.392 72.0841 155.965 71.6362C155.56 71.167 155.357 70.5484 155.357 69.7806C155.357 69.482 155.453 69.1727 155.645 68.8528C155.816 68.5116 156.136 68.3409 156.605 68.3409C157.117 68.3409 157.479 68.5542 157.693 68.9808C157.906 69.386 158.013 69.8446 158.013 70.3565C158.013 70.6977 157.981 71.007 157.917 71.2843C157.874 71.5402 157.831 71.7855 157.789 72.0201ZM185.424 69.7806C185.274 70.2712 185.21 70.7297 185.232 71.1563C185.274 71.5615 185.53 71.7642 185.999 71.7642C186.426 71.7642 186.821 71.5296 187.183 71.0603C187.546 70.5698 187.93 69.7166 188.335 68.5009L188.719 67.3172H189.327L188.591 69.6526C188.335 70.5058 187.994 71.1776 187.567 71.6682C187.141 72.1374 186.693 72.468 186.223 72.66C185.754 72.8519 185.306 72.9479 184.88 72.9479C183.6 72.9479 182.928 72.34 182.864 71.1243C182.843 70.7831 182.864 70.3885 182.928 69.9406C183.013 69.4927 183.131 69.0021 183.28 68.4689L187.887 51.1608C188.079 50.4356 188.047 49.9024 187.791 49.5612C187.535 49.2199 186.885 49.0493 185.84 49.0493L186.031 48.3774C187.205 48.3561 188.239 48.2388 189.135 48.0255C190.031 47.7909 190.884 47.471 191.694 47.0657L185.424 69.7806ZM178.257 71.9241C178.79 71.9241 179.388 71.6149 180.049 70.9963C180.731 70.3565 181.414 69.5033 182.096 68.4369C182.8 67.3492 183.44 66.1228 184.016 64.7577C184.613 63.3714 185.082 61.9424 185.424 60.4707L184.944 63.9259C184.112 66.1228 183.28 67.8824 182.448 69.2047C181.638 70.5271 180.806 71.4869 179.953 72.0841C179.121 72.66 178.247 72.9479 177.329 72.9479C176.668 72.9479 176.082 72.7986 175.57 72.5C175.079 72.1801 174.695 71.7108 174.418 71.0923C174.141 70.4738 174.002 69.6846 174.002 68.7249C174.002 67.7011 174.162 66.6027 174.482 65.4296C174.823 64.2352 175.303 63.0621 175.922 61.9104C176.54 60.7586 177.276 59.7135 178.129 58.7751C179.004 57.8153 179.964 57.0475 181.009 56.4716C182.054 55.8957 183.163 55.6078 184.336 55.6078C184.826 55.6078 185.285 55.7998 185.712 56.1837C186.138 56.5463 186.373 57.1008 186.415 57.8473L186.159 58.4872C186.074 57.7193 185.861 57.1755 185.52 56.8555C185.178 56.5143 184.794 56.3436 184.368 56.3436C183.557 56.3436 182.768 56.6209 182 57.1755C181.254 57.73 180.571 58.4658 179.953 59.383C179.334 60.3001 178.79 61.3239 178.321 62.4543C177.852 63.5633 177.489 64.7044 177.233 65.8775C176.978 67.0292 176.85 68.117 176.85 69.1408C176.85 70.0792 176.967 70.7831 177.201 71.2523C177.436 71.7002 177.788 71.9241 178.257 71.9241ZM192.366 65.2376C193.56 64.8324 194.637 64.4378 195.597 64.0539C196.578 63.6487 197.357 63.2221 197.933 62.7742C198.7 62.1557 199.308 61.4092 199.756 60.5347C200.204 59.6602 200.428 58.7004 200.428 57.6553C200.428 57.0368 200.385 56.6422 200.3 56.4716C200.215 56.301 200.087 56.2157 199.916 56.2157C199.383 56.2157 198.807 56.4503 198.188 56.9195C197.57 57.3887 196.962 58.0393 196.365 58.8711C195.768 59.6816 195.213 60.6093 194.701 61.6544C194.211 62.6995 193.816 63.8193 193.518 65.0137C193.219 66.1868 193.07 67.3598 193.07 68.5329C193.07 69.6206 193.272 70.4098 193.677 70.9004C194.083 71.3696 194.616 71.6042 195.277 71.6042C196.045 71.6042 196.855 71.3696 197.709 70.9004C198.562 70.4311 199.394 69.5993 200.204 68.4049L200.716 68.6609C200.311 69.3647 199.777 70.0472 199.116 70.7084C198.455 71.3696 197.709 71.9135 196.877 72.34C196.066 72.7453 195.202 72.9479 194.285 72.9479C193.432 72.9479 192.686 72.7773 192.046 72.436C191.406 72.0948 190.915 71.5935 190.574 70.9324C190.233 70.2498 190.062 69.418 190.062 68.4369C190.062 67.5198 190.233 66.496 190.574 65.3656C190.915 64.2139 191.395 63.0728 192.014 61.9424C192.654 60.7906 193.411 59.7349 194.285 58.7751C195.16 57.8153 196.13 57.0475 197.197 56.4716C198.263 55.8957 199.404 55.6078 200.62 55.6078C201.281 55.6078 201.836 55.7891 202.284 56.1517C202.753 56.4929 202.987 57.0155 202.987 57.7193C202.987 58.5725 202.731 59.3723 202.22 60.1188C201.729 60.844 201.068 61.5158 200.236 62.1343C199.426 62.7315 198.54 63.2647 197.581 63.734C196.621 64.2032 195.682 64.6084 194.765 64.9497C193.848 65.291 193.038 65.5682 192.334 65.7815L192.366 65.2376Z" fill="#CB7B91"></path><path d="M134.771 93.6273L135.571 93.6593C134.803 94.0859 134.088 94.4804 133.427 94.843C132.787 95.1843 132.265 95.5042 131.859 95.8028C131.454 96.1014 131.252 96.3893 131.252 96.6666C131.252 96.8799 131.401 97.0825 131.699 97.2745C131.998 97.4451 132.489 97.6157 133.171 97.7864L135.507 98.3942C136.189 98.5649 136.797 98.7675 137.33 99.0021C137.885 99.2154 138.322 99.4927 138.642 99.8339C138.962 100.175 139.122 100.623 139.122 101.178C139.122 101.711 138.941 102.308 138.578 102.969C138.237 103.652 137.693 104.302 136.946 104.921C136.221 105.539 135.272 106.051 134.099 106.456C132.926 106.862 131.508 107.064 129.844 107.064C128.735 107.064 127.807 106.958 127.061 106.744C126.293 106.552 125.727 106.275 125.365 105.913C124.981 105.55 124.789 105.134 124.789 104.665C124.789 104.324 124.885 103.961 125.077 103.577C125.269 103.214 125.557 102.852 125.941 102.489C126.303 102.148 126.773 101.817 127.348 101.498C127.903 101.199 128.564 100.943 129.332 100.73L129.556 101.21C128.767 101.615 128.223 102.073 127.924 102.585C127.626 103.097 127.476 103.609 127.476 104.121C127.476 104.974 127.775 105.582 128.372 105.945C128.969 106.328 129.705 106.52 130.58 106.52C131.284 106.52 132.009 106.403 132.755 106.168C133.502 105.955 134.195 105.657 134.835 105.273C135.475 104.91 135.987 104.484 136.37 103.993C136.754 103.502 136.946 102.991 136.946 102.457C136.946 102.137 136.84 101.924 136.626 101.817C136.434 101.711 136.104 101.604 135.635 101.498L130.74 100.25C130.228 100.122 129.812 99.9086 129.492 99.61C129.172 99.29 129.012 98.8635 129.012 98.3302C129.012 97.9037 129.161 97.4664 129.46 97.0185C129.759 96.5706 130.324 96.0801 131.156 95.5469C131.987 94.9923 133.192 94.3525 134.771 93.6273ZM136.402 84.5094C135.72 84.5094 135.144 84.712 134.675 85.1172C134.206 85.5011 133.811 86.0024 133.491 86.6209C133.192 87.2181 132.958 87.8473 132.787 88.5085C132.638 89.1696 132.531 89.7775 132.467 90.332C132.403 90.8653 132.371 91.2598 132.371 91.5158C132.371 92.1983 132.521 92.6889 132.819 92.9874C133.139 93.286 133.555 93.4353 134.067 93.4353C134.877 93.4353 135.528 93.1901 136.019 92.6995C136.53 92.209 136.925 91.6011 137.202 90.8759C137.48 90.1508 137.661 89.4256 137.746 88.7004C137.853 87.9752 137.906 87.3674 137.906 86.8768C137.906 86.1517 137.81 85.5758 137.618 85.1492C137.426 84.7226 137.021 84.5094 136.402 84.5094ZM136.53 83.9335C137.789 83.9335 138.802 84.2214 139.57 84.7973C140.359 85.3518 140.753 86.2583 140.753 87.5167C140.753 88.5405 140.466 89.5536 139.89 90.556C139.314 91.5584 138.503 92.3903 137.458 93.0514C136.413 93.6913 135.176 94.0112 133.747 94.0112C132.574 94.0112 131.582 93.7339 130.772 93.1794C129.983 92.6035 129.588 91.7184 129.588 90.524C129.588 89.9481 129.705 89.287 129.94 88.5405C130.196 87.7726 130.59 87.0475 131.124 86.3649C131.657 85.6611 132.361 85.0852 133.235 84.6373C134.131 84.1681 135.229 83.9335 136.53 83.9335ZM138.802 85.5971L138.226 85.3732C138.525 84.648 139.037 84.0081 139.762 83.4536C140.487 82.8991 141.244 82.6218 142.033 82.6218C142.588 82.6218 143.036 82.7817 143.377 83.1017C143.718 83.4003 143.889 83.8802 143.889 84.5414C143.889 85.1386 143.739 85.5758 143.441 85.8531C143.142 86.1303 142.822 86.269 142.481 86.269C142.14 86.269 141.809 86.1623 141.489 85.949C141.191 85.7144 141.009 85.3518 140.945 84.8613C140.881 84.3707 141.02 83.7415 141.361 82.9737L141.777 83.0697C140.881 83.4109 140.242 83.7735 139.858 84.1574C139.474 84.52 139.122 84.9999 138.802 85.5971ZM145.175 100.25C145.687 100.25 146.274 99.9299 146.935 99.29C147.596 98.6288 148.268 97.7437 148.951 96.6346C149.633 95.5255 150.262 94.2672 150.838 92.8595C151.414 91.4518 151.873 89.9908 152.214 88.4765L151.67 91.9317C150.86 94.1925 150.049 96.0161 149.239 97.4025C148.428 98.7675 147.607 99.7593 146.775 100.378C145.943 100.975 145.101 101.274 144.248 101.274C143.245 101.274 142.488 100.911 141.976 100.186C141.486 99.4607 141.24 98.5329 141.24 97.4025C141.24 96.3787 141.411 95.2696 141.752 94.0752C142.093 92.8595 142.563 91.6544 143.16 90.46C143.778 89.2656 144.482 88.1779 145.271 87.1968C146.061 86.2156 146.914 85.4265 147.831 84.8293C148.769 84.2321 149.718 83.9335 150.678 83.9335C151.425 83.9335 151.99 84.3067 152.374 85.0532C152.779 85.7784 152.864 86.8022 152.63 88.1245L152.278 88.3165C152.427 87.1861 152.352 86.2796 152.054 85.5971C151.755 84.8933 151.265 84.5414 150.582 84.5414C150.028 84.5414 149.441 84.8186 148.823 85.3732C148.225 85.9064 147.639 86.6422 147.063 87.5807C146.508 88.4978 145.997 89.5322 145.527 90.684C145.079 91.8357 144.717 93.0301 144.44 94.2672C144.184 95.4829 144.056 96.656 144.056 97.7864C144.056 98.7035 144.152 99.3434 144.344 99.7059C144.557 100.069 144.834 100.25 145.175 100.25ZM153.238 84.3814C153.75 84.3601 154.261 84.3174 154.773 84.2534C155.285 84.1894 155.754 84.0828 156.181 83.9335L152.182 98.0743C152.139 98.2663 152.075 98.5222 151.99 98.8421C151.926 99.1407 151.926 99.418 151.99 99.6739C152.075 99.9299 152.299 100.058 152.662 100.058C153.088 100.058 153.504 99.8232 153.909 99.354C154.315 98.8848 154.72 98.0316 155.125 96.7946L155.509 95.6109H156.117L155.317 97.9463C155.019 98.7995 154.656 99.4713 154.229 99.9619C153.824 100.431 153.398 100.762 152.95 100.954C152.502 101.167 152.065 101.274 151.638 101.274C150.806 101.274 150.22 100.996 149.878 100.442C149.601 99.9512 149.526 99.386 149.654 98.7462C149.782 98.085 149.932 97.4238 150.102 96.7626L153.238 84.3814ZM160.29 100.826H157.507L161.346 87.1008C161.559 86.3756 161.623 85.8637 161.538 85.5651C161.474 85.2665 161.26 85.1172 160.898 85.1172C160.429 85.1172 160.002 85.3625 159.618 85.8531C159.234 86.3436 158.829 87.1861 158.402 88.3805L157.987 89.5642H157.379L158.179 87.2287C158.498 86.3329 158.872 85.6504 159.298 85.1812C159.746 84.712 160.205 84.3921 160.674 84.2214C161.165 84.0295 161.623 83.9335 162.05 83.9335C162.69 83.9335 163.137 84.0721 163.393 84.3494C163.671 84.6267 163.82 84.9893 163.841 85.4372C163.884 85.885 163.852 86.3756 163.745 86.9088C163.66 87.4207 163.553 87.9219 163.425 88.4125L160.29 100.826ZM168.512 84.7333C168.022 84.7333 167.51 84.9679 166.977 85.4372C166.465 85.885 165.931 86.5462 165.377 87.4207C164.844 88.2738 164.3 89.3083 163.745 90.524C163.212 91.7184 162.679 93.0514 162.146 94.5231C161.634 95.9948 161.133 97.5837 160.642 99.29L161.442 95.195C162.146 93.1048 162.796 91.3452 163.393 89.9161C164.012 88.4871 164.62 87.3354 165.217 86.4609C165.814 85.5651 166.422 84.9253 167.041 84.5414C167.68 84.1361 168.352 83.9335 169.056 83.9335C169.653 83.9335 170.112 84.1041 170.432 84.4454C170.773 84.7866 170.944 85.2239 170.944 85.7571C170.944 86.1836 170.837 86.5782 170.624 86.9408C170.41 87.2821 170.133 87.5593 169.792 87.7726C169.472 87.9646 169.109 88.0606 168.704 88.0606C168.342 88.0606 168.032 87.9646 167.776 87.7726C167.542 87.5593 167.424 87.2714 167.424 86.9088C167.424 86.5676 167.488 86.269 167.616 86.013C167.744 85.7358 167.915 85.5011 168.128 85.3092C168.342 85.1172 168.587 84.9679 168.864 84.8613C168.821 84.8186 168.768 84.7866 168.704 84.7653C168.661 84.744 168.598 84.7333 168.512 84.7333ZM172.359 100.25C172.871 100.25 173.458 99.9299 174.119 99.29C174.78 98.6288 175.452 97.7437 176.134 96.6346C176.817 95.5255 177.446 94.2672 178.022 92.8595C178.598 91.4518 179.056 89.9908 179.398 88.4765L178.854 91.9317C178.043 94.1925 177.233 96.0161 176.422 97.4025C175.612 98.7675 174.791 99.7593 173.959 100.378C173.127 100.975 172.285 101.274 171.432 101.274C170.429 101.274 169.672 100.911 169.16 100.186C168.669 99.4607 168.424 98.5329 168.424 97.4025C168.424 96.3787 168.595 95.2696 168.936 94.0752C169.277 92.8595 169.747 91.6544 170.344 90.46C170.962 89.2656 171.666 88.1779 172.455 87.1968C173.244 86.2156 174.098 85.4265 175.015 84.8293C175.953 84.2321 176.902 83.9335 177.862 83.9335C178.609 83.9335 179.174 84.3067 179.558 85.0532C179.963 85.7784 180.048 86.8022 179.814 88.1245L179.462 88.3165C179.611 87.1861 179.536 86.2796 179.238 85.5971C178.939 84.8933 178.449 84.5414 177.766 84.5414C177.212 84.5414 176.625 84.8186 176.007 85.3732C175.409 85.9064 174.823 86.6422 174.247 87.5807C173.692 88.4978 173.18 89.5322 172.711 90.684C172.263 91.8357 171.901 93.0301 171.623 94.2672C171.368 95.4829 171.24 96.656 171.24 97.7864C171.24 98.7035 171.336 99.3434 171.528 99.7059C171.741 100.069 172.018 100.25 172.359 100.25ZM180.422 84.3814C180.933 84.3601 181.445 84.3174 181.957 84.2534C182.469 84.1894 182.938 84.0828 183.365 83.9335L179.366 98.0743C179.323 98.2663 179.259 98.5222 179.174 98.8421C179.11 99.1407 179.11 99.418 179.174 99.6739C179.259 99.9299 179.483 100.058 179.846 100.058C180.272 100.058 180.688 99.8232 181.093 99.354C181.499 98.8848 181.904 98.0316 182.309 96.7946L182.693 95.6109H183.301L182.501 97.9463C182.202 98.7995 181.84 99.4713 181.413 99.9619C181.008 100.431 180.581 100.762 180.134 100.954C179.686 101.167 179.248 101.274 178.822 101.274C177.99 101.274 177.404 100.996 177.062 100.442C176.785 99.9512 176.71 99.386 176.838 98.7462C176.966 98.085 177.116 97.4238 177.286 96.7626L180.422 84.3814ZM187.506 100.826H184.723L188.562 87.1008C188.647 86.8448 188.711 86.5676 188.754 86.269C188.818 85.949 188.807 85.6824 188.722 85.4691C188.636 85.2345 188.423 85.1172 188.082 85.1172C187.613 85.1172 187.197 85.3518 186.834 85.8211C186.471 86.269 186.066 87.1221 185.618 88.3805L185.202 89.5642H184.595L185.394 87.2287C185.864 85.885 186.439 84.9999 187.122 84.5733C187.826 84.1468 188.519 83.9335 189.202 83.9335C189.841 83.9335 190.3 84.0721 190.577 84.3494C190.876 84.6267 191.036 84.9893 191.057 85.4372C191.1 85.8637 191.068 86.3436 190.961 86.8768C190.876 87.3887 190.769 87.9006 190.641 88.4125L187.506 100.826ZM188.978 94.1712C189.724 92.2516 190.449 90.6413 191.153 89.3403C191.857 88.0392 192.55 86.9941 193.233 86.205C193.915 85.3945 194.608 84.8186 195.312 84.4774C196.037 84.1148 196.784 83.9335 197.552 83.9335C198.554 83.9335 199.237 84.1788 199.599 84.6693C199.983 85.1386 200.154 85.7464 200.111 86.4929C200.068 87.2181 199.919 87.9752 199.663 88.7644L196.56 98.1063C196.368 98.6822 196.283 99.1621 196.304 99.546C196.347 99.9086 196.603 100.09 197.072 100.09C197.477 100.09 197.872 99.8659 198.255 99.418C198.661 98.9701 199.087 98.1063 199.535 96.8266L199.951 95.6429H200.559L199.759 97.9783C199.461 98.8741 199.087 99.5566 198.639 100.026C198.213 100.495 197.754 100.815 197.264 100.986C196.794 101.178 196.336 101.274 195.888 101.274C195.376 101.274 194.95 101.188 194.608 101.018C194.288 100.847 194.043 100.623 193.872 100.346C193.638 99.9619 193.563 99.4607 193.649 98.8421C193.734 98.2236 193.904 97.5411 194.16 96.7946L197.2 87.6447C197.306 87.3461 197.392 86.9941 197.456 86.5889C197.541 86.1623 197.53 85.7891 197.424 85.4691C197.317 85.1279 197.008 84.9573 196.496 84.9573C195.984 84.9573 195.44 85.1812 194.864 85.6291C194.288 86.077 193.691 86.7169 193.073 87.5487C192.454 88.3592 191.846 89.3403 191.249 90.492C190.652 91.6224 190.076 92.8808 189.521 94.2672C188.988 95.6322 188.498 97.0932 188.05 98.6502L188.978 94.1712ZM212.879 84.3814L212.783 85.0212H202.833L202.993 84.3814H212.879ZM204.753 98.1063C204.561 98.8101 204.603 99.322 204.88 99.642C205.179 99.9405 205.563 100.09 206.032 100.09C206.501 100.09 206.971 99.8872 207.44 99.482C207.93 99.0767 208.41 98.2129 208.88 96.8906L209.327 95.6429H209.935L209.264 97.6584C208.794 99.0448 208.186 99.9939 207.44 100.506C206.715 101.018 205.862 101.274 204.88 101.274C204.006 101.274 203.334 101.092 202.865 100.73C202.417 100.346 202.15 99.8126 202.065 99.1301C201.98 98.4476 202.065 97.6691 202.321 96.7946L207.28 79.5185C207.792 79.4972 208.293 79.4545 208.784 79.3905C209.295 79.3265 209.754 79.2199 210.159 79.0706L204.753 98.1063ZM216.396 78.5587C216.503 78.0042 216.78 77.5243 217.228 77.119C217.697 76.7138 218.198 76.5112 218.731 76.5112C219.286 76.5112 219.712 76.7138 220.011 77.119C220.331 77.5243 220.438 78.0042 220.331 78.5587C220.224 79.1132 219.936 79.5931 219.467 79.9984C219.019 80.4036 218.518 80.6062 217.964 80.6062C217.43 80.6062 217.004 80.4036 216.684 79.9984C216.385 79.5931 216.289 79.1132 216.396 78.5587ZM215.404 87.1008C215.852 85.7784 215.703 85.1172 214.956 85.1172C214.466 85.1172 214.028 85.3838 213.645 85.917C213.261 86.4503 212.855 87.2714 212.429 88.3805L211.981 89.5642H211.373L212.205 87.2287C212.525 86.3329 212.909 85.6504 213.357 85.1812C213.804 84.712 214.274 84.3921 214.764 84.2214C215.276 84.0295 215.745 83.9335 216.172 83.9335C216.854 83.9335 217.356 84.0721 217.676 84.3494C217.996 84.6267 218.187 84.9893 218.251 85.4372C218.315 85.885 218.294 86.3756 218.187 86.9088C218.081 87.4207 217.942 87.9219 217.772 88.4125L214.348 98.1063C214.135 98.7248 214.06 99.2154 214.124 99.578C214.21 99.9192 214.455 100.09 214.86 100.09C215.287 100.09 215.692 99.8552 216.076 99.386C216.46 98.9168 216.886 98.0636 217.356 96.8266L217.804 95.6429H218.411L217.58 97.9783C217.281 98.8101 216.918 99.4713 216.492 99.9619C216.065 100.431 215.607 100.762 215.116 100.954C214.626 101.167 214.135 101.274 213.645 101.274C212.727 101.274 212.109 101.06 211.789 100.634C211.469 100.207 211.352 99.6526 211.437 98.9701C211.522 98.2876 211.704 97.5624 211.981 96.7946L215.404 87.1008ZM222.947 100.25C223.459 100.25 224.045 99.9299 224.706 99.29C225.367 98.6288 226.039 97.7437 226.722 96.6346C227.404 95.5255 228.034 94.2672 228.609 92.8595C229.185 91.4518 229.644 89.9908 229.985 88.4765L229.441 91.9317C228.631 94.1925 227.82 96.0161 227.01 97.4025C226.199 98.7675 225.378 99.7593 224.546 100.378C223.715 100.975 222.872 101.274 222.019 101.274C221.016 101.274 220.259 100.911 219.747 100.186C219.257 99.4607 219.012 98.5329 219.012 97.4025C219.012 96.3787 219.182 95.2696 219.523 94.0752C219.865 92.8595 220.334 91.6544 220.931 90.46C221.55 89.2656 222.253 88.1779 223.043 87.1968C223.832 86.2156 224.685 85.4265 225.602 84.8293C226.541 84.2321 227.49 83.9335 228.449 83.9335C229.196 83.9335 229.761 84.3067 230.145 85.0532C230.55 85.7784 230.636 86.8022 230.401 88.1245L230.049 88.3165C230.198 87.1861 230.124 86.2796 229.825 85.5971C229.527 84.8933 229.036 84.5414 228.353 84.5414C227.799 84.5414 227.212 84.8186 226.594 85.3732C225.997 85.9064 225.41 86.6422 224.834 87.5807C224.28 88.4978 223.768 89.5322 223.299 90.684C222.851 91.8357 222.488 93.0301 222.211 94.2672C221.955 95.4829 221.827 96.656 221.827 97.7864C221.827 98.7035 221.923 99.3434 222.115 99.7059C222.328 100.069 222.605 100.25 222.947 100.25ZM231.009 84.3814C231.521 84.3601 232.033 84.3174 232.545 84.2534C233.056 84.1894 233.526 84.0828 233.952 83.9335L229.953 98.0743C229.91 98.2663 229.846 98.5222 229.761 98.8421C229.697 99.1407 229.697 99.418 229.761 99.6739C229.846 99.9299 230.07 100.058 230.433 100.058C230.86 100.058 231.275 99.8232 231.681 99.354C232.086 98.8848 232.491 98.0316 232.896 96.7946L233.28 95.6109H233.888L233.088 97.9463C232.79 98.7995 232.427 99.4713 232.001 99.9619C231.595 100.431 231.169 100.762 230.721 100.954C230.273 101.167 229.836 101.274 229.409 101.274C228.577 101.274 227.991 100.996 227.65 100.442C227.372 99.9512 227.298 99.386 227.426 98.7462C227.554 98.085 227.703 97.4238 227.874 96.7626L231.009 84.3814Z" fill="#CB7B91"></path><path d="M326.632 66.76C325.245 66.76 323.954 66.5347 322.758 66.084C321.579 65.616 320.548 64.966 319.664 64.134C318.797 63.2847 318.121 62.288 317.636 61.144C317.15 60 316.908 58.752 316.908 57.4C316.908 56.048 317.15 54.8 317.636 53.656C318.121 52.512 318.806 51.524 319.69 50.692C320.574 49.8427 321.605 49.1927 322.784 48.742C323.962 48.274 325.254 48.04 326.658 48.04C328.148 48.04 329.509 48.3 330.74 48.82C331.97 49.3227 333.01 50.0767 333.86 51.082L331.676 53.136C331.017 52.4253 330.28 51.8967 329.466 51.55C328.651 51.186 327.767 51.004 326.814 51.004C325.86 51.004 324.985 51.16 324.188 51.472C323.408 51.784 322.723 52.226 322.134 52.798C321.562 53.37 321.111 54.046 320.782 54.826C320.47 55.606 320.314 56.464 320.314 57.4C320.314 58.336 320.47 59.194 320.782 59.974C321.111 60.754 321.562 61.43 322.134 62.002C322.723 62.574 323.408 63.016 324.188 63.328C324.985 63.64 325.86 63.796 326.814 63.796C327.767 63.796 328.651 63.6227 329.466 63.276C330.28 62.912 331.017 62.366 331.676 61.638L333.86 63.718C333.01 64.706 331.97 65.46 330.74 65.98C329.509 66.5 328.14 66.76 326.632 66.76ZM341.453 66.682C340.032 66.682 338.766 66.3787 337.657 65.772C336.548 65.148 335.672 64.2987 335.031 63.224C334.39 62.1493 334.069 60.9273 334.069 59.558C334.069 58.1713 334.39 56.9493 335.031 55.892C335.672 54.8173 336.548 53.9767 337.657 53.37C338.766 52.7633 340.032 52.46 341.453 52.46C342.892 52.46 344.166 52.7633 345.275 53.37C346.402 53.9767 347.277 54.8087 347.901 55.866C348.542 56.9233 348.863 58.154 348.863 59.558C348.863 60.9273 348.542 62.1493 347.901 63.224C347.277 64.2987 346.402 65.148 345.275 65.772C344.166 66.3787 342.892 66.682 341.453 66.682ZM341.453 63.9C342.25 63.9 342.961 63.7267 343.585 63.38C344.209 63.0333 344.694 62.5307 345.041 61.872C345.405 61.2133 345.587 60.442 345.587 59.558C345.587 58.6567 345.405 57.8853 345.041 57.244C344.694 56.5853 344.209 56.0827 343.585 55.736C342.961 55.3893 342.259 55.216 341.479 55.216C340.682 55.216 339.971 55.3893 339.347 55.736C338.74 56.0827 338.255 56.5853 337.891 57.244C337.527 57.8853 337.345 58.6567 337.345 59.558C337.345 60.442 337.527 61.2133 337.891 61.872C338.255 62.5307 338.74 63.0333 339.347 63.38C339.971 63.7267 340.673 63.9 341.453 63.9ZM368.455 52.46C369.564 52.46 370.544 52.6767 371.393 53.11C372.26 53.5433 372.936 54.2107 373.421 55.112C373.906 55.996 374.149 57.14 374.149 58.544V66.5H370.899V58.96C370.899 57.7293 370.63 56.8107 370.093 56.204C369.556 55.5973 368.784 55.294 367.779 55.294C367.068 55.294 366.436 55.45 365.881 55.762C365.344 56.074 364.919 56.5333 364.607 57.14C364.312 57.7467 364.165 58.518 364.165 59.454V66.5H360.915V58.96C360.915 57.7293 360.646 56.8107 360.109 56.204C359.572 55.5973 358.8 55.294 357.795 55.294C357.084 55.294 356.452 55.45 355.897 55.762C355.36 56.074 354.935 56.5333 354.623 57.14C354.328 57.7467 354.181 58.518 354.181 59.454V66.5H350.931V52.616H354.025V56.308L353.479 55.216C353.947 54.3147 354.623 53.63 355.507 53.162C356.408 52.694 357.431 52.46 358.575 52.46C359.875 52.46 361.002 52.7807 361.955 53.422C362.926 54.0633 363.567 55.034 363.879 56.334L362.605 55.892C363.056 54.852 363.801 54.02 364.841 53.396C365.881 52.772 367.086 52.46 368.455 52.46ZM384.958 66.682C383.831 66.682 382.8 66.422 381.864 65.902C380.945 65.382 380.209 64.602 379.654 63.562C379.117 62.5047 378.848 61.17 378.848 59.558C378.848 57.9287 379.108 56.594 379.628 55.554C380.165 54.514 380.893 53.7427 381.812 53.24C382.731 52.72 383.779 52.46 384.958 52.46C386.327 52.46 387.532 52.7547 388.572 53.344C389.629 53.9333 390.461 54.7567 391.068 55.814C391.692 56.8713 392.004 58.1193 392.004 59.558C392.004 60.9967 391.692 62.2533 391.068 63.328C390.461 64.3853 389.629 65.2087 388.572 65.798C387.532 66.3873 386.327 66.682 384.958 66.682ZM377.262 71.544V52.616H380.356V55.892L380.252 59.584L380.512 63.276V71.544H377.262ZM384.594 63.9C385.374 63.9 386.067 63.7267 386.674 63.38C387.298 63.0333 387.792 62.5307 388.156 61.872C388.52 61.2133 388.702 60.442 388.702 59.558C388.702 58.6567 388.52 57.8853 388.156 57.244C387.792 56.5853 387.298 56.0827 386.674 55.736C386.067 55.3893 385.374 55.216 384.594 55.216C383.814 55.216 383.112 55.3893 382.488 55.736C381.864 56.0827 381.37 56.5853 381.006 57.244C380.642 57.8853 380.46 58.6567 380.46 59.558C380.46 60.442 380.642 61.2133 381.006 61.872C381.37 62.5307 381.864 63.0333 382.488 63.38C383.112 63.7267 383.814 63.9 384.594 63.9ZM394.046 66.5V52.616H397.14V56.438L396.776 55.32C397.192 54.384 397.842 53.6733 398.726 53.188C399.628 52.7027 400.746 52.46 402.08 52.46V55.554C401.942 55.5193 401.812 55.502 401.69 55.502C401.569 55.4847 401.448 55.476 401.326 55.476C400.096 55.476 399.116 55.84 398.388 56.568C397.66 57.2787 397.296 58.3447 397.296 59.766V66.5H394.046ZM411.361 66.5V63.692L411.179 63.094V58.18C411.179 57.2267 410.893 56.49 410.321 55.97C409.749 55.4327 408.882 55.164 407.721 55.164C406.941 55.164 406.17 55.2853 405.407 55.528C404.662 55.7707 404.029 56.1087 403.509 56.542L402.235 54.176C402.98 53.604 403.864 53.1793 404.887 52.902C405.927 52.6073 407.002 52.46 408.111 52.46C410.122 52.46 411.673 52.9453 412.765 53.916C413.874 54.8693 414.429 56.3513 414.429 58.362V66.5H411.361ZM406.993 66.682C405.953 66.682 405.043 66.5087 404.263 66.162C403.483 65.798 402.876 65.304 402.443 64.68C402.027 64.0387 401.819 63.3193 401.819 62.522C401.819 61.742 402.001 61.04 402.365 60.416C402.746 59.792 403.362 59.298 404.211 58.934C405.06 58.57 406.187 58.388 407.591 58.388H411.621V60.546H407.825C406.716 60.546 405.97 60.728 405.589 61.092C405.208 61.4387 405.017 61.872 405.017 62.392C405.017 62.9813 405.251 63.4493 405.719 63.796C406.187 64.1427 406.837 64.316 407.669 64.316C408.466 64.316 409.177 64.134 409.801 63.77C410.442 63.406 410.902 62.8687 411.179 62.158L411.725 64.108C411.413 64.9227 410.85 65.5553 410.035 66.006C409.238 66.4567 408.224 66.682 406.993 66.682ZM425.63 66.5V49.6L427.112 51.134H421.782V48.3H429.01V66.5H425.63ZM439.172 66.76C437.733 66.76 436.433 66.396 435.272 65.668C434.128 64.94 433.227 63.8827 432.568 62.496C431.909 61.092 431.58 59.3933 431.58 57.4C431.58 55.4067 431.909 53.7167 432.568 52.33C433.227 50.926 434.128 49.86 435.272 49.132C436.433 48.404 437.733 48.04 439.172 48.04C440.628 48.04 441.928 48.404 443.072 49.132C444.216 49.86 445.117 50.926 445.776 52.33C446.452 53.7167 446.79 55.4067 446.79 57.4C446.79 59.3933 446.452 61.092 445.776 62.496C445.117 63.8827 444.216 64.94 443.072 65.668C441.928 66.396 440.628 66.76 439.172 66.76ZM439.172 63.822C440.021 63.822 440.758 63.5967 441.382 63.146C442.006 62.678 442.491 61.9673 442.838 61.014C443.202 60.0607 443.384 58.856 443.384 57.4C443.384 55.9267 443.202 54.722 442.838 53.786C442.491 52.8327 442.006 52.1307 441.382 51.68C440.758 51.212 440.021 50.978 439.172 50.978C438.357 50.978 437.629 51.212 436.988 51.68C436.364 52.1307 435.87 52.8327 435.506 53.786C435.159 54.722 434.986 55.9267 434.986 57.4C434.986 58.856 435.159 60.0607 435.506 61.014C435.87 61.9673 436.364 62.678 436.988 63.146C437.629 63.5967 438.357 63.822 439.172 63.822ZM455.626 66.76C454.187 66.76 452.887 66.396 451.726 65.668C450.582 64.94 449.681 63.8827 449.022 62.496C448.363 61.092 448.034 59.3933 448.034 57.4C448.034 55.4067 448.363 53.7167 449.022 52.33C449.681 50.926 450.582 49.86 451.726 49.132C452.887 48.404 454.187 48.04 455.626 48.04C457.082 48.04 458.382 48.404 459.526 49.132C460.67 49.86 461.571 50.926 462.23 52.33C462.906 53.7167 463.244 55.4067 463.244 57.4C463.244 59.3933 462.906 61.092 462.23 62.496C461.571 63.8827 460.67 64.94 459.526 65.668C458.382 66.396 457.082 66.76 455.626 66.76ZM455.626 63.822C456.475 63.822 457.212 63.5967 457.836 63.146C458.46 62.678 458.945 61.9673 459.292 61.014C459.656 60.0607 459.838 58.856 459.838 57.4C459.838 55.9267 459.656 54.722 459.292 53.786C458.945 52.8327 458.46 52.1307 457.836 51.68C457.212 51.212 456.475 50.978 455.626 50.978C454.811 50.978 454.083 51.212 453.442 51.68C452.818 52.1307 452.324 52.8327 451.96 53.786C451.613 54.722 451.44 55.9267 451.44 57.4C451.44 58.856 451.613 60.0607 451.96 61.014C452.324 61.9673 452.818 62.678 453.442 63.146C454.083 63.5967 454.811 63.822 455.626 63.822ZM467.036 66.5L479.464 48.3H482.012L469.584 66.5H467.036ZM468.544 58.102C467.695 58.102 466.941 57.894 466.282 57.478C465.623 57.062 465.112 56.4813 464.748 55.736C464.384 54.9907 464.202 54.1153 464.202 53.11C464.202 52.1047 464.384 51.2293 464.748 50.484C465.112 49.7387 465.623 49.158 466.282 48.742C466.941 48.326 467.695 48.118 468.544 48.118C469.428 48.118 470.191 48.326 470.832 48.742C471.491 49.158 472.002 49.7387 472.366 50.484C472.73 51.2293 472.912 52.1047 472.912 53.11C472.912 54.1153 472.73 54.9907 472.366 55.736C472.002 56.4813 471.491 57.062 470.832 57.478C470.191 57.894 469.428 58.102 468.544 58.102ZM468.57 56.282C469.263 56.282 469.801 56.0133 470.182 55.476C470.581 54.9213 470.78 54.1327 470.78 53.11C470.78 52.0873 470.581 51.3073 470.182 50.77C469.801 50.2153 469.263 49.938 468.57 49.938C467.877 49.938 467.322 50.2153 466.906 50.77C466.507 51.3247 466.308 52.1047 466.308 53.11C466.308 54.1153 466.507 54.8953 466.906 55.45C467.322 56.0047 467.877 56.282 468.57 56.282ZM480.478 66.682C479.629 66.682 478.875 66.474 478.216 66.058C477.557 65.642 477.046 65.0613 476.682 64.316C476.318 63.5707 476.136 62.6953 476.136 61.69C476.136 60.6847 476.318 59.8093 476.682 59.064C477.046 58.3187 477.557 57.738 478.216 57.322C478.875 56.906 479.629 56.698 480.478 56.698C481.362 56.698 482.125 56.906 482.766 57.322C483.425 57.738 483.936 58.3187 484.3 59.064C484.664 59.8093 484.846 60.6847 484.846 61.69C484.846 62.6953 484.664 63.5707 484.3 64.316C483.936 65.0613 483.425 65.642 482.766 66.058C482.125 66.474 481.362 66.682 480.478 66.682ZM480.478 64.862C481.171 64.862 481.717 64.5847 482.116 64.03C482.515 63.4753 482.714 62.6953 482.714 61.69C482.714 60.6847 482.515 59.9047 482.116 59.35C481.717 58.7953 481.171 58.518 480.478 58.518C479.802 58.518 479.256 58.7953 478.84 59.35C478.441 59.8873 478.242 60.6673 478.242 61.69C478.242 62.7127 478.441 63.5013 478.84 64.056C479.256 64.5933 479.802 64.862 480.478 64.862ZM497.241 66.682C496.079 66.682 494.961 66.5347 493.887 66.24C492.829 65.928 491.989 65.5553 491.365 65.122L492.613 62.652C493.237 63.0507 493.982 63.38 494.849 63.64C495.715 63.9 496.582 64.03 497.449 64.03C498.471 64.03 499.208 63.8913 499.659 63.614C500.127 63.3367 500.361 62.964 500.361 62.496C500.361 62.1147 500.205 61.8287 499.893 61.638C499.581 61.43 499.173 61.274 498.671 61.17C498.168 61.066 497.605 60.9707 496.981 60.884C496.374 60.7973 495.759 60.6847 495.135 60.546C494.528 60.39 493.973 60.1733 493.471 59.896C492.968 59.6013 492.561 59.2113 492.249 58.726C491.937 58.2407 491.781 57.5993 491.781 56.802C491.781 55.918 492.032 55.1553 492.535 54.514C493.037 53.8553 493.739 53.3527 494.641 53.006C495.559 52.642 496.643 52.46 497.891 52.46C498.827 52.46 499.771 52.564 500.725 52.772C501.678 52.98 502.467 53.2747 503.091 53.656L501.843 56.126C501.184 55.7273 500.517 55.4587 499.841 55.32C499.182 55.164 498.523 55.086 497.865 55.086C496.877 55.086 496.14 55.2333 495.655 55.528C495.187 55.8227 494.953 56.1953 494.953 56.646C494.953 57.062 495.109 57.374 495.421 57.582C495.733 57.79 496.14 57.9547 496.643 58.076C497.145 58.1973 497.7 58.3013 498.307 58.388C498.931 58.4573 499.546 58.57 500.153 58.726C500.759 58.882 501.314 59.0987 501.817 59.376C502.337 59.636 502.753 60.0087 503.065 60.494C503.377 60.9793 503.533 61.612 503.533 62.392C503.533 63.2587 503.273 64.0127 502.753 64.654C502.25 65.2953 501.531 65.798 500.595 66.162C499.659 66.5087 498.541 66.682 497.241 66.682ZM511.818 66.682C510.275 66.682 508.923 66.3787 507.762 65.772C506.618 65.148 505.725 64.2987 505.084 63.224C504.46 62.1493 504.148 60.9273 504.148 59.558C504.148 58.1713 504.451 56.9493 505.058 55.892C505.682 54.8173 506.531 53.9767 507.606 53.37C508.698 52.7633 509.937 52.46 511.324 52.46C512.676 52.46 513.88 52.7547 514.938 53.344C515.995 53.9333 516.827 54.7653 517.434 55.84C518.04 56.9147 518.344 58.18 518.344 59.636C518.344 59.7747 518.335 59.9307 518.318 60.104C518.318 60.2773 518.309 60.442 518.292 60.598H506.722V58.44H516.576L515.302 59.116C515.319 58.3187 515.154 57.6167 514.808 57.01C514.461 56.4033 513.984 55.9267 513.378 55.58C512.788 55.2333 512.104 55.06 511.324 55.06C510.526 55.06 509.824 55.2333 509.218 55.58C508.628 55.9267 508.16 56.412 507.814 57.036C507.484 57.6427 507.32 58.362 507.32 59.194V59.714C507.32 60.546 507.51 61.2827 507.892 61.924C508.273 62.5653 508.81 63.0593 509.504 63.406C510.197 63.7527 510.994 63.926 511.896 63.926C512.676 63.926 513.378 63.8047 514.002 63.562C514.626 63.3193 515.18 62.938 515.666 62.418L517.408 64.42C516.784 65.148 515.995 65.7113 515.042 66.11C514.106 66.4913 513.031 66.682 511.818 66.682ZM526.718 71.726C525.435 71.726 524.178 71.5527 522.948 71.206C521.734 70.8767 520.738 70.3913 519.958 69.75L521.414 67.306C522.02 67.8087 522.783 68.2073 523.702 68.502C524.638 68.814 525.582 68.97 526.536 68.97C528.061 68.97 529.179 68.6147 529.89 67.904C530.6 67.2107 530.956 66.162 530.956 64.758V62.288L531.216 59.142L531.112 55.996V52.616H534.206V64.394C534.206 66.9073 533.564 68.7533 532.282 69.932C530.999 71.128 529.144 71.726 526.718 71.726ZM526.302 65.876C524.984 65.876 523.788 65.5987 522.714 65.044C521.656 64.472 520.816 63.6833 520.192 62.678C519.585 61.6727 519.282 60.494 519.282 59.142C519.282 57.8073 519.585 56.6373 520.192 55.632C520.816 54.6267 521.656 53.8467 522.714 53.292C523.788 52.7373 524.984 52.46 526.302 52.46C527.48 52.46 528.538 52.694 529.474 53.162C530.41 53.63 531.155 54.358 531.71 55.346C532.282 56.334 532.568 57.5993 532.568 59.142C532.568 60.6847 532.282 61.9587 531.71 62.964C531.155 63.952 530.41 64.6887 529.474 65.174C528.538 65.642 527.48 65.876 526.302 65.876ZM526.796 63.12C527.61 63.12 528.338 62.9553 528.98 62.626C529.621 62.2793 530.115 61.8113 530.462 61.222C530.826 60.6153 531.008 59.922 531.008 59.142C531.008 58.362 530.826 57.6773 530.462 57.088C530.115 56.4813 529.621 56.022 528.98 55.71C528.338 55.3807 527.61 55.216 526.796 55.216C525.981 55.216 525.244 55.3807 524.586 55.71C523.944 56.022 523.442 56.4813 523.078 57.088C522.731 57.6773 522.558 58.362 522.558 59.142C522.558 59.922 522.731 60.6153 523.078 61.222C523.442 61.8113 523.944 62.2793 524.586 62.626C525.244 62.9553 525.981 63.12 526.796 63.12ZM543.314 66.682C542.136 66.682 541.096 66.4653 540.194 66.032C539.293 65.5813 538.591 64.9053 538.088 64.004C537.586 63.0853 537.334 61.9327 537.334 60.546V52.616H540.584V60.104C540.584 61.352 540.862 62.288 541.416 62.912C541.988 63.5187 542.794 63.822 543.834 63.822C544.597 63.822 545.256 63.666 545.81 63.354C546.382 63.042 546.824 62.574 547.136 61.95C547.466 61.326 547.63 60.5547 547.63 59.636V52.616H550.88V66.5H547.786V62.756L548.332 63.9C547.864 64.8013 547.18 65.4947 546.278 65.98C545.377 66.448 544.389 66.682 543.314 66.682ZM554.096 66.5V52.616H557.19V56.438L556.826 55.32C557.242 54.384 557.892 53.6733 558.776 53.188C559.677 52.7027 560.795 52.46 562.13 52.46V55.554C561.991 55.5193 561.861 55.502 561.74 55.502C561.618 55.4847 561.497 55.476 561.376 55.476C560.145 55.476 559.166 55.84 558.438 56.568C557.71 57.2787 557.346 58.3447 557.346 59.766V66.5H554.096ZM571.41 66.5V63.692L571.228 63.094V58.18C571.228 57.2267 570.942 56.49 570.37 55.97C569.798 55.4327 568.932 55.164 567.77 55.164C566.99 55.164 566.219 55.2853 565.456 55.528C564.711 55.7707 564.078 56.1087 563.558 56.542L562.284 54.176C563.03 53.604 563.914 53.1793 564.936 52.902C565.976 52.6073 567.051 52.46 568.16 52.46C570.171 52.46 571.722 52.9453 572.814 53.916C573.924 54.8693 574.478 56.3513 574.478 58.362V66.5H571.41ZM567.042 66.682C566.002 66.682 565.092 66.5087 564.312 66.162C563.532 65.798 562.926 65.304 562.492 64.68C562.076 64.0387 561.868 63.3193 561.868 62.522C561.868 61.742 562.05 61.04 562.414 60.416C562.796 59.792 563.411 59.298 564.26 58.934C565.11 58.57 566.236 58.388 567.64 58.388H571.67V60.546H567.874C566.765 60.546 566.02 60.728 565.638 61.092C565.257 61.4387 565.066 61.872 565.066 62.392C565.066 62.9813 565.3 63.4493 565.768 63.796C566.236 64.1427 566.886 64.316 567.718 64.316C568.516 64.316 569.226 64.134 569.85 63.77C570.492 63.406 570.951 62.8687 571.228 62.158L571.774 64.108C571.462 64.9227 570.899 65.5553 570.084 66.006C569.287 66.4567 568.273 66.682 567.042 66.682ZM577.817 60.468L577.193 48.3H581.041L580.391 60.468H577.817ZM579.117 66.682C578.511 66.682 578.008 66.4827 577.609 66.084C577.211 65.6853 577.011 65.2087 577.011 64.654C577.011 64.0993 577.211 63.6313 577.609 63.25C578.008 62.8513 578.511 62.652 579.117 62.652C579.724 62.652 580.218 62.8513 580.599 63.25C580.981 63.6313 581.171 64.0993 581.171 64.654C581.171 65.2087 580.981 65.6853 580.599 66.084C580.218 66.4827 579.724 66.682 579.117 66.682ZM326.71 98.656C325.323 98.656 324.04 98.4307 322.862 97.98C321.7 97.512 320.686 96.862 319.82 96.03C318.97 95.198 318.303 94.2187 317.818 93.092C317.35 91.9653 317.116 90.7347 317.116 89.4C317.116 88.0653 317.35 86.8347 317.818 85.708C318.303 84.5813 318.979 83.602 319.846 82.77C320.712 81.938 321.726 81.2967 322.888 80.846C324.066 80.378 325.349 80.144 326.736 80.144C328.122 80.144 329.388 80.3607 330.532 80.794C331.693 81.2273 332.681 81.886 333.496 82.77L332.3 83.992C331.537 83.2293 330.696 82.6833 329.778 82.354C328.859 82.0247 327.871 81.86 326.814 81.86C325.687 81.86 324.647 82.0507 323.694 82.432C322.758 82.796 321.934 83.3247 321.224 84.018C320.53 84.694 319.984 85.4913 319.586 86.41C319.204 87.3113 319.014 88.308 319.014 89.4C319.014 90.4747 319.204 91.4713 319.586 92.39C319.984 93.3087 320.53 94.1147 321.224 94.808C321.934 95.484 322.758 96.0127 323.694 96.394C324.647 96.758 325.678 96.94 326.788 96.94C327.828 96.94 328.807 96.784 329.726 96.472C330.662 96.16 331.52 95.6313 332.3 94.886L333.392 96.342C332.525 97.1047 331.511 97.6853 330.35 98.084C329.188 98.4653 327.975 98.656 326.71 98.656ZM331.546 96.108V89.4H333.392V96.342L331.546 96.108ZM345.961 98.5V95.484L345.883 94.99V89.946C345.883 88.7847 345.554 87.892 344.895 87.268C344.254 86.644 343.292 86.332 342.009 86.332C341.125 86.332 340.284 86.4793 339.487 86.774C338.69 87.0687 338.014 87.4587 337.459 87.944L336.627 86.566C337.32 85.9767 338.152 85.526 339.123 85.214C340.094 84.8847 341.116 84.72 342.191 84.72C343.959 84.72 345.32 85.162 346.273 86.046C347.244 86.9127 347.729 88.2387 347.729 90.024V98.5H345.961ZM341.255 98.63C340.232 98.63 339.34 98.4653 338.577 98.136C337.832 97.7893 337.26 97.3213 336.861 96.732C336.462 96.1253 336.263 95.432 336.263 94.652C336.263 93.9413 336.428 93.3 336.757 92.728C337.104 92.1387 337.658 91.6707 338.421 91.324C339.201 90.96 340.241 90.778 341.541 90.778H346.247V92.156H341.593C340.276 92.156 339.357 92.39 338.837 92.858C338.334 93.326 338.083 93.9067 338.083 94.6C338.083 95.38 338.386 96.004 338.993 96.472C339.6 96.94 340.449 97.174 341.541 97.174C342.581 97.174 343.474 96.94 344.219 96.472C344.982 95.9867 345.536 95.2933 345.883 94.392L346.299 95.666C345.952 96.5673 345.346 97.2867 344.479 97.824C343.63 98.3613 342.555 98.63 341.255 98.63ZM351.703 98.5V84.85H353.471V88.568L353.289 87.918C353.67 86.878 354.312 86.0893 355.213 85.552C356.114 84.9973 357.232 84.72 358.567 84.72V86.514C358.498 86.514 358.428 86.514 358.359 86.514C358.29 86.4967 358.22 86.488 358.151 86.488C356.712 86.488 355.586 86.93 354.771 87.814C353.956 88.6807 353.549 89.92 353.549 91.532V98.5H351.703ZM368.434 98.5V95.484L368.356 94.99V89.946C368.356 88.7847 368.026 87.892 367.368 87.268C366.726 86.644 365.764 86.332 364.482 86.332C363.598 86.332 362.757 86.4793 361.96 86.774C361.162 87.0687 360.486 87.4587 359.932 87.944L359.1 86.566C359.793 85.9767 360.625 85.526 361.596 85.214C362.566 84.8847 363.589 84.72 364.664 84.72C366.432 84.72 367.792 85.162 368.746 86.046C369.716 86.9127 370.202 88.2387 370.202 90.024V98.5H368.434ZM363.728 98.63C362.705 98.63 361.812 98.4653 361.05 98.136C360.304 97.7893 359.732 97.3213 359.334 96.732C358.935 96.1253 358.736 95.432 358.736 94.652C358.736 93.9413 358.9 93.3 359.23 92.728C359.576 92.1387 360.131 91.6707 360.894 91.324C361.674 90.96 362.714 90.778 364.014 90.778H368.72V92.156H364.066C362.748 92.156 361.83 92.39 361.31 92.858C360.807 93.326 360.556 93.9067 360.556 94.6C360.556 95.38 360.859 96.004 361.466 96.472C362.072 96.94 362.922 97.174 364.014 97.174C365.054 97.174 365.946 96.94 366.692 96.472C367.454 95.9867 368.009 95.2933 368.356 94.392L368.772 95.666C368.425 96.5673 367.818 97.2867 366.952 97.824C366.102 98.3613 365.028 98.63 363.728 98.63ZM381.144 84.72C382.253 84.72 383.224 84.9367 384.056 85.37C384.905 85.786 385.564 86.4273 386.032 87.294C386.517 88.1607 386.76 89.2527 386.76 90.57V98.5H384.914V90.752C384.914 89.3133 384.55 88.23 383.822 87.502C383.111 86.7567 382.106 86.384 380.806 86.384C379.835 86.384 378.986 86.5833 378.258 86.982C377.547 87.3633 376.992 87.9267 376.594 88.672C376.212 89.4 376.022 90.284 376.022 91.324V98.5H374.176V84.85H375.944V88.594L375.658 87.892C376.091 86.904 376.784 86.1327 377.738 85.578C378.691 85.006 379.826 84.72 381.144 84.72ZM395.022 98.63C393.739 98.63 392.751 98.2833 392.058 97.59C391.365 96.8967 391.018 95.9173 391.018 94.652V81.834H392.864V94.548C392.864 95.3453 393.063 95.9607 393.462 96.394C393.878 96.8273 394.467 97.044 395.23 97.044C396.045 97.044 396.721 96.81 397.258 96.342L397.908 97.668C397.544 97.9973 397.102 98.24 396.582 98.396C396.079 98.552 395.559 98.63 395.022 98.63ZM388.574 86.384V84.85H397.024V86.384H388.574ZM400.229 98.5V84.85H402.075V98.5H400.229ZM401.165 81.834C400.783 81.834 400.463 81.704 400.203 81.444C399.943 81.184 399.813 80.872 399.813 80.508C399.813 80.144 399.943 79.8407 400.203 79.598C400.463 79.338 400.783 79.208 401.165 79.208C401.546 79.208 401.867 79.3293 402.127 79.572C402.387 79.8147 402.517 80.118 402.517 80.482C402.517 80.8633 402.387 81.184 402.127 81.444C401.884 81.704 401.563 81.834 401.165 81.834ZM414.725 98.5V95.484L414.647 94.99V89.946C414.647 88.7847 414.318 87.892 413.659 87.268C413.018 86.644 412.056 86.332 410.773 86.332C409.889 86.332 409.048 86.4793 408.251 86.774C407.454 87.0687 406.778 87.4587 406.223 87.944L405.391 86.566C406.084 85.9767 406.916 85.526 407.887 85.214C408.858 84.8847 409.88 84.72 410.955 84.72C412.723 84.72 414.084 85.162 415.037 86.046C416.008 86.9127 416.493 88.2387 416.493 90.024V98.5H414.725ZM410.019 98.63C408.996 98.63 408.104 98.4653 407.341 98.136C406.596 97.7893 406.024 97.3213 405.625 96.732C405.226 96.1253 405.027 95.432 405.027 94.652C405.027 93.9413 405.192 93.3 405.521 92.728C405.868 92.1387 406.422 91.6707 407.185 91.324C407.965 90.96 409.005 90.778 410.305 90.778H415.011V92.156H410.357C409.04 92.156 408.121 92.39 407.601 92.858C407.098 93.326 406.847 93.9067 406.847 94.6C406.847 95.38 407.15 96.004 407.757 96.472C408.364 96.94 409.213 97.174 410.305 97.174C411.345 97.174 412.238 96.94 412.983 96.472C413.746 95.9867 414.3 95.2933 414.647 94.392L415.063 95.666C414.716 96.5673 414.11 97.2867 413.243 97.824C412.394 98.3613 411.319 98.63 410.019 98.63ZM426.232 98.5V84.85H428.078V98.5H426.232ZM427.168 81.834C426.786 81.834 426.466 81.704 426.206 81.444C425.946 81.184 425.816 80.872 425.816 80.508C425.816 80.144 425.946 79.8407 426.206 79.598C426.466 79.338 426.786 79.208 427.168 79.208C427.549 79.208 427.87 79.3293 428.13 79.572C428.39 79.8147 428.52 80.118 428.52 80.482C428.52 80.8633 428.39 81.184 428.13 81.444C427.887 81.704 427.566 81.834 427.168 81.834ZM439.142 84.72C440.251 84.72 441.222 84.9367 442.054 85.37C442.903 85.786 443.562 86.4273 444.03 87.294C444.515 88.1607 444.758 89.2527 444.758 90.57V98.5H442.912V90.752C442.912 89.3133 442.548 88.23 441.82 87.502C441.109 86.7567 440.104 86.384 438.804 86.384C437.833 86.384 436.984 86.5833 436.256 86.982C435.545 87.3633 434.991 87.9267 434.592 88.672C434.211 89.4 434.02 90.284 434.02 91.324V98.5H432.174V84.85H433.942V88.594L433.656 87.892C434.089 86.904 434.783 86.1327 435.736 85.578C436.689 85.006 437.825 84.72 439.142 84.72ZM454.372 98.63C453.02 98.63 451.807 98.3353 450.732 97.746C449.675 97.1393 448.843 96.316 448.236 95.276C447.63 94.2187 447.326 93.014 447.326 91.662C447.326 90.2927 447.63 89.088 448.236 88.048C448.843 87.008 449.675 86.1933 450.732 85.604C451.807 85.0147 453.02 84.72 454.372 84.72C455.534 84.72 456.582 84.9453 457.518 85.396C458.454 85.8467 459.191 86.5227 459.728 87.424L458.35 88.36C457.882 87.6667 457.302 87.1553 456.608 86.826C455.915 86.4967 455.161 86.332 454.346 86.332C453.376 86.332 452.5 86.5573 451.72 87.008C450.94 87.4413 450.325 88.0567 449.874 88.854C449.424 89.6513 449.198 90.5873 449.198 91.662C449.198 92.7367 449.424 93.6727 449.874 94.47C450.325 95.2673 450.94 95.8913 451.72 96.342C452.5 96.7753 453.376 96.992 454.346 96.992C455.161 96.992 455.915 96.8273 456.608 96.498C457.302 96.1687 457.882 95.666 458.35 94.99L459.728 95.926C459.191 96.81 458.454 97.486 457.518 97.954C456.582 98.4047 455.534 98.63 454.372 98.63ZM467.65 98.63C466.333 98.63 465.146 98.3353 464.088 97.746C463.048 97.1393 462.225 96.316 461.618 95.276C461.012 94.2187 460.708 93.014 460.708 91.662C460.708 90.2927 461.012 89.088 461.618 88.048C462.225 87.008 463.048 86.1933 464.088 85.604C465.128 85.0147 466.316 84.72 467.65 84.72C469.002 84.72 470.198 85.0147 471.238 85.604C472.296 86.1933 473.119 87.008 473.708 88.048C474.315 89.088 474.618 90.2927 474.618 91.662C474.618 93.014 474.315 94.2187 473.708 95.276C473.119 96.316 472.296 97.1393 471.238 97.746C470.181 98.3353 468.985 98.63 467.65 98.63ZM467.65 96.992C468.638 96.992 469.514 96.7753 470.276 96.342C471.039 95.8913 471.637 95.2673 472.07 94.47C472.521 93.6553 472.746 92.7193 472.746 91.662C472.746 90.5873 472.521 89.6513 472.07 88.854C471.637 88.0567 471.039 87.4413 470.276 87.008C469.514 86.5573 468.647 86.332 467.676 86.332C466.706 86.332 465.839 86.5573 465.076 87.008C464.314 87.4413 463.707 88.0567 463.256 88.854C462.806 89.6513 462.58 90.5873 462.58 91.662C462.58 92.7193 462.806 93.6553 463.256 94.47C463.707 95.2673 464.314 95.8913 465.076 96.342C465.839 96.7753 466.697 96.992 467.65 96.992ZM484.315 84.72C485.424 84.72 486.395 84.9367 487.227 85.37C488.076 85.786 488.735 86.4273 489.203 87.294C489.688 88.1607 489.931 89.2527 489.931 90.57V98.5H488.085V90.752C488.085 89.3133 487.721 88.23 486.993 87.502C486.282 86.7567 485.277 86.384 483.977 86.384C483.006 86.384 482.157 86.5833 481.429 86.982C480.718 87.3633 480.164 87.9267 479.765 88.672C479.384 89.4 479.193 90.284 479.193 91.324V98.5H477.347V84.85H479.115V88.594L478.829 87.892C479.262 86.904 479.956 86.1327 480.909 85.578C481.862 85.006 482.998 84.72 484.315 84.72ZM499.311 98.63C498.011 98.63 496.841 98.3353 495.801 97.746C494.779 97.1567 493.973 96.342 493.383 95.302C492.794 94.2447 492.499 93.0313 492.499 91.662C492.499 90.2753 492.794 89.062 493.383 88.022C493.973 86.982 494.779 86.176 495.801 85.604C496.841 85.0147 498.011 84.72 499.311 84.72C500.507 84.72 501.573 84.9887 502.509 85.526C503.463 86.0633 504.217 86.852 504.771 87.892C505.343 88.9147 505.629 90.1713 505.629 91.662C505.629 93.1353 505.352 94.392 504.797 95.432C504.243 96.472 503.489 97.2693 502.535 97.824C501.599 98.3613 500.525 98.63 499.311 98.63ZM499.441 96.992C500.412 96.992 501.279 96.7753 502.041 96.342C502.821 95.8913 503.428 95.2673 503.861 94.47C504.312 93.6553 504.537 92.7193 504.537 91.662C504.537 90.5873 504.312 89.6513 503.861 88.854C503.428 88.0567 502.821 87.4413 502.041 87.008C501.279 86.5573 500.412 86.332 499.441 86.332C498.488 86.332 497.63 86.5573 496.867 87.008C496.105 87.4413 495.498 88.0567 495.047 88.854C494.597 89.6513 494.371 90.5873 494.371 91.662C494.371 92.7193 494.597 93.6553 495.047 94.47C495.498 95.2673 496.105 95.8913 496.867 96.342C497.63 96.7753 498.488 96.992 499.441 96.992ZM504.589 98.5V94.392L504.771 91.636L504.511 88.88V79.208H506.357V98.5H504.589ZM510.458 98.5V84.85H512.304V98.5H510.458ZM511.394 81.834C511.013 81.834 510.692 81.704 510.432 81.444C510.172 81.184 510.042 80.872 510.042 80.508C510.042 80.144 510.172 79.8407 510.432 79.598C510.692 79.338 511.013 79.208 511.394 79.208C511.776 79.208 512.096 79.3293 512.356 79.572C512.616 79.8147 512.746 80.118 512.746 80.482C512.746 80.8633 512.616 81.184 512.356 81.444C512.114 81.704 511.793 81.834 511.394 81.834ZM522.069 98.63C520.717 98.63 519.503 98.3353 518.429 97.746C517.371 97.1393 516.539 96.316 515.933 95.276C515.326 94.2187 515.023 93.014 515.023 91.662C515.023 90.2927 515.326 89.088 515.933 88.048C516.539 87.008 517.371 86.1933 518.429 85.604C519.503 85.0147 520.717 84.72 522.069 84.72C523.23 84.72 524.279 84.9453 525.215 85.396C526.151 85.8467 526.887 86.5227 527.425 87.424L526.047 88.36C525.579 87.6667 524.998 87.1553 524.305 86.826C523.611 86.4967 522.857 86.332 522.043 86.332C521.072 86.332 520.197 86.5573 519.417 87.008C518.637 87.4413 518.021 88.0567 517.571 88.854C517.12 89.6513 516.895 90.5873 516.895 91.662C516.895 92.7367 517.12 93.6727 517.571 94.47C518.021 95.2673 518.637 95.8913 519.417 96.342C520.197 96.7753 521.072 96.992 522.043 96.992C522.857 96.992 523.611 96.8273 524.305 96.498C524.998 96.1687 525.579 95.666 526.047 94.99L527.425 95.926C526.887 96.81 526.151 97.486 525.215 97.954C524.279 98.4047 523.23 98.63 522.069 98.63ZM529.808 98.5V84.85H531.654V98.5H529.808ZM530.744 81.834C530.363 81.834 530.042 81.704 529.782 81.444C529.522 81.184 529.392 80.872 529.392 80.508C529.392 80.144 529.522 79.8407 529.782 79.598C530.042 79.338 530.363 79.208 530.744 79.208C531.125 79.208 531.446 79.3293 531.706 79.572C531.966 79.8147 532.096 80.118 532.096 80.482C532.096 80.8633 531.966 81.184 531.706 81.444C531.463 81.704 531.143 81.834 530.744 81.834ZM541.314 98.63C539.997 98.63 538.81 98.3353 537.752 97.746C536.712 97.1393 535.889 96.316 535.282 95.276C534.676 94.2187 534.372 93.014 534.372 91.662C534.372 90.2927 534.676 89.088 535.282 88.048C535.889 87.008 536.712 86.1933 537.752 85.604C538.792 85.0147 539.98 84.72 541.314 84.72C542.666 84.72 543.862 85.0147 544.902 85.604C545.96 86.1933 546.783 87.008 547.372 88.048C547.979 89.088 548.282 90.2927 548.282 91.662C548.282 93.014 547.979 94.2187 547.372 95.276C546.783 96.316 545.96 97.1393 544.902 97.746C543.845 98.3353 542.649 98.63 541.314 98.63ZM541.314 96.992C542.302 96.992 543.178 96.7753 543.94 96.342C544.703 95.8913 545.301 95.2673 545.734 94.47C546.185 93.6553 546.41 92.7193 546.41 91.662C546.41 90.5873 546.185 89.6513 545.734 88.854C545.301 88.0567 544.703 87.4413 543.94 87.008C543.178 86.5573 542.311 86.332 541.34 86.332C540.37 86.332 539.503 86.5573 538.74 87.008C537.978 87.4413 537.371 88.0567 536.92 88.854C536.47 89.6513 536.244 90.5873 536.244 91.662C536.244 92.7193 536.47 93.6553 536.92 94.47C537.371 95.2673 537.978 95.8913 538.74 96.342C539.503 96.7753 540.361 96.992 541.314 96.992ZM557.979 84.72C559.089 84.72 560.059 84.9367 560.891 85.37C561.741 85.786 562.399 86.4273 562.867 87.294C563.353 88.1607 563.595 89.2527 563.595 90.57V98.5H561.749V90.752C561.749 89.3133 561.385 88.23 560.657 87.502C559.947 86.7567 558.941 86.384 557.641 86.384C556.671 86.384 555.821 86.5833 555.093 86.982C554.383 87.3633 553.828 87.9267 553.429 88.672C553.048 89.4 552.857 90.284 552.857 91.324V98.5H551.011V84.85H552.779V88.594L552.493 87.892C552.927 86.904 553.62 86.1327 554.573 85.578C555.527 85.006 556.662 84.72 557.979 84.72ZM576.096 98.5V95.484L576.018 94.99V89.946C576.018 88.7847 575.688 87.892 575.03 87.268C574.388 86.644 573.426 86.332 572.144 86.332C571.26 86.332 570.419 86.4793 569.622 86.774C568.824 87.0687 568.148 87.4587 567.594 87.944L566.762 86.566C567.455 85.9767 568.287 85.526 569.258 85.214C570.228 84.8847 571.251 84.72 572.326 84.72C574.094 84.72 575.454 85.162 576.408 86.046C577.378 86.9127 577.864 88.2387 577.864 90.024V98.5H576.096ZM571.39 98.63C570.367 98.63 569.474 98.4653 568.712 98.136C567.966 97.7893 567.394 97.3213 566.996 96.732C566.597 96.1253 566.398 95.432 566.398 94.652C566.398 93.9413 566.562 93.3 566.892 92.728C567.238 92.1387 567.793 91.6707 568.556 91.324C569.336 90.96 570.376 90.778 571.676 90.778H576.382V92.156H571.728C570.41 92.156 569.492 92.39 568.972 92.858C568.469 93.326 568.218 93.9067 568.218 94.6C568.218 95.38 568.521 96.004 569.128 96.472C569.734 96.94 570.584 97.174 571.676 97.174C572.716 97.174 573.608 96.94 574.354 96.472C575.116 95.9867 575.671 95.2933 576.018 94.392L576.434 95.666C576.087 96.5673 575.48 97.2867 574.614 97.824C573.764 98.3613 572.69 98.63 571.39 98.63ZM581.838 98.5V79.208H583.684V98.5H581.838ZM598.979 98.63C597.679 98.63 596.509 98.3353 595.469 97.746C594.446 97.1567 593.64 96.342 593.051 95.302C592.461 94.2447 592.167 93.0313 592.167 91.662C592.167 90.2753 592.461 89.062 593.051 88.022C593.64 86.982 594.446 86.176 595.469 85.604C596.509 85.0147 597.679 84.72 598.979 84.72C600.175 84.72 601.241 84.9887 602.177 85.526C603.13 86.0633 603.884 86.852 604.439 87.892C605.011 88.9147 605.297 90.1713 605.297 91.662C605.297 93.1353 605.019 94.392 604.465 95.432C603.91 96.472 603.156 97.2693 602.203 97.824C601.267 98.3613 600.192 98.63 598.979 98.63ZM599.109 96.992C600.079 96.992 600.946 96.7753 601.709 96.342C602.489 95.8913 603.095 95.2673 603.529 94.47C603.979 93.6553 604.205 92.7193 604.205 91.662C604.205 90.5873 603.979 89.6513 603.529 88.854C603.095 88.0567 602.489 87.4413 601.709 87.008C600.946 86.5573 600.079 86.332 599.109 86.332C598.155 86.332 597.297 86.5573 596.535 87.008C595.772 87.4413 595.165 88.0567 594.715 88.854C594.264 89.6513 594.039 90.5873 594.039 91.662C594.039 92.7193 594.264 93.6553 594.715 94.47C595.165 95.2673 595.772 95.8913 596.535 96.342C597.297 96.7753 598.155 96.992 599.109 96.992ZM604.257 98.5V94.392L604.439 91.636L604.179 88.88V79.208H606.025V98.5H604.257ZM615.924 98.63C614.502 98.63 613.254 98.3353 612.18 97.746C611.105 97.1393 610.264 96.316 609.658 95.276C609.051 94.2187 608.748 93.014 608.748 91.662C608.748 90.31 609.034 89.114 609.606 88.074C610.195 87.034 610.992 86.2193 611.998 85.63C613.02 85.0233 614.164 84.72 615.43 84.72C616.712 84.72 617.848 85.0147 618.836 85.604C619.841 86.176 620.63 86.9907 621.202 88.048C621.774 89.088 622.06 90.2927 622.06 91.662C622.06 91.7487 622.051 91.844 622.034 91.948C622.034 92.0347 622.034 92.13 622.034 92.234H610.152V90.856H621.046L620.318 91.402C620.318 90.414 620.101 89.5387 619.668 88.776C619.252 87.996 618.68 87.3893 617.952 86.956C617.224 86.5227 616.383 86.306 615.43 86.306C614.494 86.306 613.653 86.5227 612.908 86.956C612.162 87.3893 611.582 87.996 611.166 88.776C610.75 89.556 610.542 90.4487 610.542 91.454V91.74C610.542 92.78 610.767 93.6987 611.218 94.496C611.686 95.276 612.327 95.8913 613.142 96.342C613.974 96.7753 614.918 96.992 615.976 96.992C616.808 96.992 617.579 96.8447 618.29 96.55C619.018 96.2553 619.642 95.8047 620.162 95.198L621.202 96.394C620.595 97.122 619.832 97.6767 618.914 98.058C618.012 98.4393 617.016 98.63 615.924 98.63ZM632.518 98.5L640.37 81.132L640.942 81.964H629.684L630.646 81.054V85.37H628.8V80.3H642.164V81.626L634.546 98.5H632.518ZM656.011 98.63C654.711 98.63 653.541 98.3353 652.501 97.746C651.478 97.1567 650.672 96.342 650.083 95.302C649.494 94.2447 649.199 93.0313 649.199 91.662C649.199 90.2753 649.494 89.062 650.083 88.022C650.672 86.982 651.478 86.176 652.501 85.604C653.541 85.0147 654.711 84.72 656.011 84.72C657.207 84.72 658.273 84.9887 659.209 85.526C660.162 86.0633 660.916 86.852 661.471 87.892C662.043 88.9147 662.329 90.1713 662.329 91.662C662.329 93.1353 662.052 94.392 661.497 95.432C660.942 96.472 660.188 97.2693 659.235 97.824C658.299 98.3613 657.224 98.63 656.011 98.63ZM656.141 96.992C657.112 96.992 657.978 96.7753 658.741 96.342C659.521 95.8913 660.128 95.2673 660.561 94.47C661.012 93.6553 661.237 92.7193 661.237 91.662C661.237 90.5873 661.012 89.6513 660.561 88.854C660.128 88.0567 659.521 87.4413 658.741 87.008C657.978 86.5573 657.112 86.332 656.141 86.332C655.188 86.332 654.33 86.5573 653.567 87.008C652.804 87.4413 652.198 88.0567 651.747 88.854C651.296 89.6513 651.071 90.5873 651.071 91.662C651.071 92.7193 651.296 93.6553 651.747 94.47C652.198 95.2673 652.804 95.8913 653.567 96.342C654.33 96.7753 655.188 96.992 656.141 96.992ZM661.289 98.5V94.392L661.471 91.636L661.211 88.88V79.208H663.057V98.5H661.289ZM667.158 98.5V84.85H669.004V98.5H667.158ZM668.094 81.834C667.713 81.834 667.392 81.704 667.132 81.444C666.872 81.184 666.742 80.872 666.742 80.508C666.742 80.144 666.872 79.8407 667.132 79.598C667.392 79.338 667.713 79.208 668.094 79.208C668.475 79.208 668.796 79.3293 669.056 79.572C669.316 79.8147 669.446 80.118 669.446 80.482C669.446 80.8633 669.316 81.184 669.056 81.444C668.813 81.704 668.493 81.834 668.094 81.834ZM681.655 98.5V95.484L681.577 94.99V89.946C681.577 88.7847 681.247 87.892 680.589 87.268C679.947 86.644 678.985 86.332 677.703 86.332C676.819 86.332 675.978 86.4793 675.181 86.774C674.383 87.0687 673.707 87.4587 673.153 87.944L672.321 86.566C673.014 85.9767 673.846 85.526 674.817 85.214C675.787 84.8847 676.81 84.72 677.885 84.72C679.653 84.72 681.013 85.162 681.967 86.046C682.937 86.9127 683.423 88.2387 683.423 90.024V98.5H681.655ZM676.949 98.63C675.926 98.63 675.033 98.4653 674.271 98.136C673.525 97.7893 672.953 97.3213 672.555 96.732C672.156 96.1253 671.957 95.432 671.957 94.652C671.957 93.9413 672.121 93.3 672.451 92.728C672.797 92.1387 673.352 91.6707 674.115 91.324C674.895 90.96 675.935 90.778 677.235 90.778H681.941V92.156H677.287C675.969 92.156 675.051 92.39 674.531 92.858C674.028 93.326 673.777 93.9067 673.777 94.6C673.777 95.38 674.08 96.004 674.687 96.472C675.293 96.94 676.143 97.174 677.235 97.174C678.275 97.174 679.167 96.94 679.913 96.472C680.675 95.9867 681.23 95.2933 681.577 94.392L681.993 95.666C681.646 96.5673 681.039 97.2867 680.173 97.824C679.323 98.3613 678.249 98.63 676.949 98.63ZM691.063 98.63C689.936 98.63 688.87 98.474 687.865 98.162C686.859 97.8327 686.071 97.4253 685.499 96.94L686.331 95.484C686.885 95.9 687.596 96.264 688.463 96.576C689.329 96.8707 690.239 97.018 691.193 97.018C692.493 97.018 693.429 96.8187 694.001 96.42C694.573 96.004 694.859 95.458 694.859 94.782C694.859 94.2793 694.694 93.8893 694.365 93.612C694.053 93.3173 693.637 93.1007 693.117 92.962C692.597 92.806 692.016 92.676 691.375 92.572C690.733 92.468 690.092 92.3467 689.451 92.208C688.827 92.0693 688.255 91.87 687.735 91.61C687.215 91.3327 686.79 90.96 686.461 90.492C686.149 90.024 685.993 89.4 685.993 88.62C685.993 87.8747 686.201 87.2073 686.617 86.618C687.033 86.0287 687.639 85.5693 688.437 85.24C689.251 84.8933 690.239 84.72 691.401 84.72C692.285 84.72 693.169 84.8413 694.053 85.084C694.937 85.3093 695.665 85.6127 696.237 85.994L695.431 87.476C694.824 87.06 694.174 86.7653 693.481 86.592C692.787 86.4013 692.094 86.306 691.401 86.306C690.17 86.306 689.26 86.5227 688.671 86.956C688.099 87.372 687.813 87.9093 687.813 88.568C687.813 89.088 687.969 89.4953 688.281 89.79C688.61 90.0847 689.035 90.3187 689.555 90.492C690.092 90.648 690.673 90.778 691.297 90.882C691.938 90.986 692.571 91.116 693.195 91.272C693.836 91.4107 694.417 91.61 694.937 91.87C695.474 92.1127 695.899 92.468 696.211 92.936C696.54 93.3867 696.705 93.9847 696.705 94.73C696.705 95.5273 696.479 96.2207 696.029 96.81C695.595 97.382 694.954 97.8327 694.105 98.162C693.273 98.474 692.259 98.63 691.063 98.63ZM699.234 98.63C698.852 98.63 698.523 98.4913 698.246 98.214C697.986 97.9367 697.856 97.5987 697.856 97.2C697.856 96.784 697.986 96.446 698.246 96.186C698.523 95.926 698.852 95.796 699.234 95.796C699.615 95.796 699.936 95.926 700.196 96.186C700.473 96.446 700.612 96.784 700.612 97.2C700.612 97.5987 700.473 97.9367 700.196 98.214C699.936 98.4913 699.615 98.63 699.234 98.63Z" fill="white"></path><defs><linearGradient id="paint0_linear_46_208" x1="-11" y1="36" x2="172" y2="175.5" gradientUnits="userSpaceOnUse"><stop stop-color="#9C3A55"></stop><stop offset="1"></stop></linearGradient><linearGradient id="paint1_linear_46_208" x1="67" y1="0.5" x2="67" y2="145.5" gradientUnits="userSpaceOnUse"><stop stop-color="#9C3A55"></stop><stop offset="1" stop-color="white" stop-opacity="0.1"></stop></linearGradient></defs></svg>