<svg width="23" height="24" viewBox="0 0 23 24" fill="none" xmlns="http://www.w3.org/2000/svg">
<rect x="0.0136719" y="0.666626" width="22.9453" height="23" rx="11.4726" fill="#9C3A55"/>
<path d="M8.5164 16.6282V15.9836L12.1944 12.3815C12.5314 12.0529 12.7842 11.7664 12.9527 11.5221C13.1212 11.2693 13.235 11.0334 13.2939 10.8143C13.3529 10.5952 13.3824 10.3888 13.3824 10.195C13.3824 9.68098 13.2055 9.27653 12.8516 8.98162C12.5061 8.68671 11.9921 8.53925 11.3096 8.53925C10.7872 8.53925 10.3238 8.6193 9.91933 8.7794C9.52331 8.93949 9.18205 9.18806 8.89557 9.5251L8.25098 8.96898C8.59644 8.56453 9.03881 8.25277 9.57807 8.03369C10.1173 7.81462 10.7198 7.70508 11.3855 7.70508C11.9837 7.70508 12.5019 7.80198 12.9401 7.99578C13.3782 8.18115 13.7153 8.45499 13.9512 8.81731C14.1955 9.17963 14.3177 9.60515 14.3177 10.0939C14.3177 10.3803 14.2756 10.6626 14.1913 10.9407C14.1155 11.2187 13.9722 11.5136 13.7616 11.8254C13.5594 12.1287 13.2602 12.4742 12.8642 12.8618L9.4896 16.1732L9.23682 15.8193H14.7222V16.6282H8.5164Z" fill="white"/>
</svg>
