<svg width="52" height="41" viewBox="0 0 52 41" fill="none" xmlns="http://www.w3.org/2000/svg">
<path d="M45.6397 29.2983C47.5476 29.2983 49.0641 29.812 50.1893 30.8393C51.3145 31.8177 51.8771 33.1875 51.8771 34.9487C51.8771 36.7098 51.3145 38.104 50.1893 39.1314C49.0641 40.1098 47.5476 40.599 45.6397 40.599C43.7318 40.599 42.2153 40.1098 41.0901 39.1314C39.9649 38.104 39.4023 36.7098 39.4023 34.9487C39.4023 33.1875 39.9649 31.8177 41.0901 30.8393C42.2153 29.812 43.7318 29.2983 45.6397 29.2983Z" fill="white"/>
<path d="M17.5031 0.606445C21.27 0.606445 24.2541 1.41363 26.4556 3.028C28.657 4.64238 29.7577 6.94164 29.7577 9.92579C29.7577 11.8337 29.2685 13.5704 28.2901 15.1358C27.3606 16.7013 26.1131 18.1933 24.5477 19.612C22.9822 20.9818 21.2945 22.2782 19.4844 23.5012C17.7233 24.7242 16.011 25.9472 14.3477 27.1703C12.6844 28.3443 11.2658 29.5674 10.0917 30.8393H25.9419C27.9476 30.8393 29.2196 30.5947 29.7577 30.1055C30.2958 29.6163 30.6627 28.7602 30.8584 27.5372H32.3994C32.3994 30.8148 32.4239 33.3587 32.4728 35.1688C32.5217 36.9788 32.5951 38.5687 32.6929 39.9385C32.2526 39.8407 31.4455 39.7673 30.2714 39.7184C29.0973 39.6694 27.752 39.6205 26.2354 39.5716C24.7189 39.5716 23.2268 39.5716 21.7592 39.5716H0.405412V38.1774C1.77519 36.7097 3.46294 35.0954 5.46868 33.3342C7.47442 31.5731 9.43124 29.6163 11.3391 27.4638C13.296 25.3113 14.9348 22.9876 16.2556 20.4926C17.5765 17.9487 18.2369 15.2337 18.2369 12.3474C18.2369 9.70565 17.6499 7.79775 16.4758 6.62366C15.3017 5.44957 13.6139 4.86252 11.4125 4.86252C9.30894 4.86252 7.44996 5.35173 5.83558 6.33014C4.27013 7.25963 2.85144 8.65386 1.5795 10.5128L0.332031 9.77903C1.31044 8.11573 2.53345 6.5992 4.00107 5.22943C5.5176 3.81074 7.37658 2.68556 9.578 1.85392C11.7794 1.02227 14.4211 0.606445 17.5031 0.606445Z" fill="white"/>
</svg>
