<svg xmlns="http://www.w3.org/2000/svg" width="42" height="41" viewBox="0 0 42 41" fill="none"><path d="M35.3897 29.0781C37.2976 29.0781 38.8141 29.5918 39.9393 30.6191C41.0645 31.5975 41.6271 32.9673 41.6271 34.7284C41.6271 36.4896 41.0645 37.8838 39.9393 38.9111C38.8141 39.8895 37.2976 40.3788 35.3897 40.3788C33.4818 40.3788 31.9653 39.8895 30.8401 38.9111C29.7149 37.8838 29.1523 36.4896 29.1523 34.7284C29.1523 32.9673 29.7149 31.5975 30.8401 30.6191C31.9653 29.5918 33.4818 29.0781 35.3897 29.0781Z" fill="white"></path><path d="M18.0853 0.606445V32.2335C18.0853 34.386 18.4766 35.8536 19.2594 36.6364C20.091 37.4191 21.4608 37.8105 23.3687 37.8105V39.3515C22.3903 39.3025 20.9471 39.2536 19.0392 39.2047C17.1802 39.1068 15.2479 39.0579 13.2422 39.0579C10.7472 39.0579 8.32564 39.1068 5.97746 39.2047C3.6782 39.2536 1.8926 39.3025 0.620671 39.3515V37.8105C2.82209 37.8105 4.50985 37.4191 5.68394 36.6364C6.90695 35.8047 7.51846 34.1903 7.51846 31.7932V13.8883C7.51846 11.5402 7.32278 9.80349 6.93141 8.67832C6.54005 7.55315 5.80624 6.81934 4.72999 6.4769C3.65374 6.13445 2.18613 5.96323 0.327148 5.96323V4.34886C4.53431 4.25102 8.00766 3.93303 10.7472 3.39491C13.5357 2.85678 15.9817 1.9273 18.0853 0.606445Z" fill="white"></path></svg>