<svg xmlns="http://www.w3.org/2000/svg" width="51" height="51" viewBox="0 0 51 51" fill="none"><path d="M44.0516 29.2983C45.9595 29.2983 47.476 29.812 48.6012 30.8393C49.7263 31.8177 50.2889 33.1875 50.2889 34.9487C50.2889 36.7098 49.7263 38.104 48.6012 39.1314C47.476 40.1098 45.9595 40.599 44.0516 40.599C42.1437 40.599 40.6271 40.1098 39.502 39.1314C38.3768 38.104 37.8142 36.7098 37.8142 34.9487C37.8142 33.1875 38.3768 31.8177 39.502 30.8393C40.6271 29.812 42.1437 29.2983 44.0516 29.2983Z" fill="white"></path><path d="M16.366 0.606445C18.7631 0.606445 20.9156 0.948888 22.8235 1.63377C24.7314 2.26974 26.2235 3.22369 27.2997 4.49562C28.376 5.71863 28.9141 7.23517 28.9141 9.04522C28.9141 10.9042 28.3026 12.6409 27.0796 14.2553C25.9055 15.8696 24.1933 17.2883 21.9429 18.5113C19.7415 19.6854 17.0998 20.566 14.0178 21.153C17.3444 21.0063 20.3286 21.3487 22.9703 22.1804C25.612 23.012 27.6911 24.2839 29.2076 25.9962C30.7731 27.6595 31.5558 29.763 31.5558 32.3069C31.5558 34.5572 30.9443 36.6364 29.7213 38.5443C28.5472 40.4522 26.9084 42.1399 24.8048 43.6075C22.7012 45.1241 20.3041 46.396 17.6135 47.4233C14.9718 48.4996 12.1833 49.3068 9.24807 49.8449C6.31284 50.383 3.37761 50.6521 0.442383 50.6521V49.1845C2.74164 49.1355 5.06537 48.7197 7.41355 47.937C9.81065 47.2032 11.9876 46.1269 13.9444 44.7082C15.9502 43.3385 17.5645 41.6263 18.7876 39.5716C20.0106 37.468 20.6221 35.0709 20.6221 32.3803C20.6221 29.494 19.9372 27.1213 18.5674 25.2624C17.1976 23.4034 15.3142 22.376 12.9171 22.1804C12.1833 22.5228 11.5229 22.8163 10.9358 23.0609C10.3488 23.2566 9.76173 23.3545 9.17469 23.3545C8.7344 23.3545 8.39196 23.2811 8.14736 23.1343C7.90275 22.9876 7.78045 22.7185 7.78045 22.3271C7.78045 21.7401 8.02506 21.3243 8.51426 21.0797C9.00346 20.8351 9.54159 20.7128 10.1286 20.7128C10.52 20.7128 10.9114 20.7617 11.3027 20.8595C11.743 20.9084 12.2078 20.9574 12.697 21.0063C14.8005 19.5387 16.2682 17.9732 17.0998 16.3099C17.9314 14.5977 18.3473 12.8855 18.3473 11.1733C18.3473 8.97184 17.7602 7.35747 16.5861 6.33014C15.461 5.25389 13.8711 4.71576 11.8164 4.71576C9.90849 4.71576 8.1229 5.20497 6.4596 6.18338C4.7963 7.11286 3.40207 8.53156 2.2769 10.4395L0.956048 9.77903C1.83662 8.16466 2.93733 6.67258 4.25818 5.30281C5.57903 3.88412 7.21787 2.75894 9.17469 1.92729C11.1315 1.04673 13.5286 0.606445 16.366 0.606445Z" fill="white"></path></svg>