<svg xmlns="http://www.w3.org/2000/svg" width="55" height="50" viewBox="0 0 55 50" fill="none"><path d="M48.087 29.2985C49.9949 29.2985 51.5114 29.8121 52.6366 30.8395C53.7617 31.8179 54.3243 33.1876 54.3243 34.9488C54.3243 36.7099 53.7617 38.1041 52.6366 39.1315C51.5114 40.1099 49.9949 40.5991 48.087 40.5991C46.1791 40.5991 44.6625 40.1099 43.5374 39.1315C42.4122 38.1041 41.8496 36.7099 41.8496 34.9488C41.8496 33.1876 42.4122 31.8179 43.5374 30.8395C44.6625 29.8121 46.1791 29.2985 48.087 29.2985Z" fill="white"></path><path d="M27.371 0.606567L27.6645 2.51447L4.76975 31.8667L5.79708 29.3718H29.1321C31.1379 29.3718 32.4098 29.1272 32.9479 28.638C33.4861 28.1488 33.853 27.2927 34.0486 26.0697H35.5896C35.5896 29.0049 35.6141 31.3042 35.663 32.9675C35.7119 34.5818 35.7853 36.025 35.8832 37.2969C35.5407 37.1991 34.9048 37.1502 33.9753 37.1502C33.0458 37.1012 31.9451 37.0523 30.6731 37.0034C29.4012 36.9545 28.1048 36.93 26.784 36.93C25.512 36.93 24.3135 36.93 23.1883 36.93H0V35.389L27.371 0.606567ZM28.5451 0.606567V49.9184H20.0329V10.9532L27.371 0.606567H28.5451Z" fill="white"></path></svg>