<svg xmlns="http://www.w3.org/2000/svg" width="6911" height="6524" viewBox="0 0 6911 6524" fill="none"><g style="mix-blend-mode:soft-light"><path d="M1858.73 735.3H1559.77C1547.1 735.3 1536.82 745.937 1536.82 759.042V6499.36C1536.82 6512.47 1547.1 6523.09 1559.77 6523.09H1858.73C1871.4 6523.09 1881.68 6512.47 1881.68 6499.36V759.042C1881.68 745.937 1871.4 735.3 1858.73 735.3Z" fill="#4C0116" fill-opacity="0.2"></path><path d="M3328.32 735.3H3029.35C3016.69 735.3 3006.41 745.937 3006.41 759.042V2729.46C3006.41 2742.57 3016.69 2753.21 3029.35 2753.21H3328.32C3340.98 2753.21 3351.26 2742.57 3351.26 2729.46V759.042C3351.26 745.937 3340.98 735.3 3328.32 735.3Z" fill="#4C0116" fill-opacity="0.2"></path><path d="M3328.32 3777.48H3029.35C3016.69 3777.48 3006.41 3788.12 3006.41 3801.21V6499.36C3006.41 6512.47 3016.69 6523.09 3029.35 6523.09H3328.32C3340.98 6523.09 3351.26 6512.47 3351.26 6499.36V3801.21C3351.26 3788.12 3340.98 3777.48 3328.32 3777.48Z" fill="#4C0116" fill-opacity="0.2"></path><path d="M2719.36 3045.73H3332.2C3344.36 3045.73 3356.06 3040.74 3364.55 3031.96L3463.44 2929.63L6280.78 14.2459C6289.49 5.22358 6300.97 0.237299 6313.13 0.237299H6887.66C6908.08 0.237299 6918.4 25.8798 6903.95 40.8378L3820.23 3231.88C3802.33 3250.4 3802.33 3280.55 3820.23 3299.08L6896.61 6482.51C6911.05 6497.48 6900.74 6523.12 6880.31 6523.12H6305.78C6293.62 6523.12 6281.92 6518.14 6273.43 6509.1L3463.22 3601.08L3364.32 3498.75C3355.61 3489.73 3344.13 3484.74 3331.97 3484.74H2719.13C2693.89 3484.74 2673.24 3506.11 2673.24 3532.23V6499.13C2673.24 6512.19 2662.92 6522.88 2650.3 6522.88H2237.3C2224.68 6522.88 2214.36 6512.19 2214.36 6499.13V490.053C2214.36 463.935 2193.71 442.567 2168.46 442.567H22.9438C10.325 442.567 0 431.882 0 418.824V23.7429C0 10.6843 10.325 0 22.9438 0H4864.65C4877.27 0 4887.6 10.6843 4887.6 23.7429V418.824C4887.6 431.882 4877.27 442.567 4864.65 442.567H2719.13C2693.89 442.567 2673.24 463.935 2673.24 490.053V2998.01C2673.24 3024.12 2693.89 3045.49 2719.13 3045.49L2719.36 3045.73Z" fill="#4C0116" fill-opacity="0.2"></path></g></svg>