<svg xmlns="http://www.w3.org/2000/svg" width="514" height="524" viewBox="0 0 514 524" fill="none"><g style="mix-blend-mode:soft-light"><path d="M94.3687 58.5132H69.5395C68.4877 58.5132 67.634 59.3669 67.634 60.4187V521.121C67.634 522.173 68.4877 523.026 69.5395 523.026H94.3687C95.4205 523.026 96.2742 522.173 96.2742 521.121V60.4187C96.2742 59.3669 95.4205 58.5132 94.3687 58.5132Z" fill="#4C0116"></path><path d="M216.419 58.5132H191.589C190.538 58.5132 189.684 59.3669 189.684 60.4187V218.559C189.684 219.611 190.538 220.465 191.589 220.465H216.419C217.47 220.465 218.324 219.611 218.324 218.559V60.4187C218.324 59.3669 217.47 58.5132 216.419 58.5132Z" fill="#4C0116"></path><path d="M216.419 302.67H191.589C190.538 302.67 189.684 303.524 189.684 304.575V521.121C189.684 522.173 190.538 523.026 191.589 523.026H216.419C217.47 523.026 218.324 522.173 218.324 521.121V304.575C218.324 303.524 217.47 302.67 216.419 302.67Z" fill="#4C0116"></path><path d="M165.844 243.942H216.741C217.751 243.942 218.723 243.542 219.428 242.837L227.641 234.624L461.622 0.643335C462.346 -0.0807699 463.299 -0.480955 464.309 -0.480955H512.024C513.72 -0.480955 514.577 1.57704 513.377 2.77753L257.272 258.882C255.786 260.368 255.786 262.788 257.272 264.275L512.767 519.769C513.967 520.97 513.11 523.028 511.414 523.028H463.699C462.689 523.028 461.717 522.628 461.012 521.903L227.622 288.513L219.409 280.3C218.685 279.576 217.732 279.176 216.722 279.176H165.825C163.729 279.176 162.014 280.891 162.014 282.987V521.103C162.014 522.151 161.157 523.009 160.109 523.009H125.809C124.761 523.009 123.904 522.151 123.904 521.103V38.8303C123.904 36.7342 122.189 35.0192 120.092 35.0192H-58.0945C-59.1425 35.0192 -60 34.1617 -60 33.1137V1.40554C-60 0.357492 -59.1425 -0.5 -58.0945 -0.5H344.012C345.06 -0.5 345.918 0.357492 345.918 1.40554V33.1137C345.918 34.1617 345.06 35.0192 344.012 35.0192H165.825C163.729 35.0192 162.014 36.7342 162.014 38.8303V240.112C162.014 242.208 163.729 243.923 165.825 243.923L165.844 243.942Z" fill="#4C0116"></path></g></svg>